<?xml version="1.0" standalone="no"?>
<!DOCTYPE svg PUBLIC "-//W3C//DTD SVG 20010904//EN"
 "http://www.w3.org/TR/2001/REC-SVG-20010904/DTD/svg10.dtd">
<svg version="1.0" xmlns="http://www.w3.org/2000/svg"
 width="628.000000pt" height="610.000000pt" viewBox="0 0 628.000000 610.000000"
 preserveAspectRatio="xMidYMid meet">

<g transform="translate(0.000000,610.000000) scale(0.100000,-0.100000)"
fill="#000000" stroke="none">
<path d="M2760 5905 c-7 -22 -32 -71 -56 -110 -48 -79 -175 -339 -194 -400 -7
-22 -41 -94 -75 -161 -39 -75 -80 -175 -109 -265 l-45 -144 -111 -147 c-172
-228 -218 -268 -310 -268 -46 0 -51 -11 -15 -34 14 -9 25 -21 25 -27 0 -23
-77 -89 -104 -89 -14 0 -26 -3 -26 -8 0 -4 18 -29 40 -56 48 -58 50 -74 10
-89 -28 -11 -29 -13 -29 -73 1 -69 -16 -110 -65 -162 -34 -37 -85 -66 -133
-76 l-32 -7 20 -32 c26 -44 24 -60 -12 -102 -35 -39 -94 -60 -146 -50 -18 3
-33 4 -33 1 0 -3 18 -33 40 -67 22 -34 40 -72 40 -84 0 -24 -34 -59 -67 -70
-30 -9 -29 -17 7 -43 16 -13 30 -30 30 -38 0 -17 -98 -65 -285 -139 -182 -72
-211 -100 -194 -188 10 -54 17 -70 71 -149 l39 -58 -57 -27 -56 -28 33 -5 c30
-4 35 -10 43 -45 28 -130 63 -234 116 -340 33 -66 56 -121 51 -123 -46 -15
-271 -182 -271 -201 0 -3 28 -6 63 -6 34 0 118 -9 186 -19 119 -18 307 -19
352 -1 26 10 109 -56 169 -133 48 -61 156 -163 450 -423 65 -57 303 -237 534
-402 38 -27 99 -74 135 -105 117 -99 335 -230 429 -257 21 -6 21 -5 11 22 -20
55 -62 116 -126 186 -67 73 -120 166 -144 252 -21 78 -15 215 10 215 5 0 22
-41 38 -90 l28 -91 5 58 5 58 42 -42 c23 -23 56 -68 73 -100 28 -53 31 -51 14
7 -9 33 12 23 56 -28 52 -58 94 -140 109 -210 20 -93 13 -101 -24 -27 -19 39
-46 84 -60 100 -23 26 -21 21 10 -37 38 -70 65 -174 64 -248 0 -41 -1 -43 -11
-20 -46 108 -80 171 -108 203 -29 34 -80 72 -67 50 73 -120 210 -340 216 -346
5 -5 12 9 16 32 4 22 10 43 15 46 11 7 15 -16 41 -218 13 -97 26 -174 31 -169
4 4 18 50 31 102 26 103 52 164 67 155 6 -4 10 -19 10 -36 0 -16 3 -29 8 -29
4 1 27 42 52 93 l45 92 3 -52 c2 -29 -2 -69 -7 -90 -6 -20 -9 -39 -6 -41 2 -2
36 17 75 43 81 54 124 106 145 178 9 32 31 67 59 97 29 31 48 63 56 91 6 24
25 87 42 139 28 83 32 112 36 230 5 148 -4 196 -43 254 -13 20 -21 36 -16 36
18 0 91 -73 117 -117 l29 -48 6 55 c11 102 46 133 153 136 37 2 70 5 72 7 3 2
-43 54 -100 115 -138 146 -186 244 -186 382 0 68 17 95 70 111 22 7 40 17 40
23 0 6 -35 36 -76 66 -106 77 -167 147 -189 219 -7 24 -6 24 39 18 33 -5 46
-3 46 6 0 6 -39 62 -86 122 -114 146 -174 269 -174 357 l0 29 29 -20 c47 -34
113 -61 150 -61 l33 0 -85 82 c-99 96 -117 138 -117 268 0 148 55 300 154 427
95 121 171 168 469 288 179 72 228 101 273 161 27 34 29 44 29 123 0 84 1 87
42 150 53 78 73 144 73 234 0 60 5 82 39 156 44 95 61 182 41 206 -7 8 -26 15
-42 15 -16 0 -169 -45 -341 -99 -469 -150 -483 -154 -510 -147 -15 3 -39 29
-66 70 -23 36 -56 73 -74 84 -17 11 -102 41 -187 67 -85 25 -174 55 -197 66
-49 24 -53 34 -98 242 -23 109 -44 169 -62 180 -5 3 -44 -51 -87 -119 -44 -68
-83 -124 -87 -124 -4 0 -26 21 -49 48 -45 49 -100 153 -100 187 0 10 -15 53
-34 95 -19 41 -49 115 -68 164 -25 69 -45 102 -84 145 l-51 55 -13 -39z m32
-102 c-3 -20 -19 -59 -37 -87 -53 -83 -82 -147 -129 -283 -25 -70 -54 -152
-65 -181 -27 -68 -26 -113 4 -187 14 -33 25 -65 25 -72 0 -7 14 -22 30 -35 34
-25 41 -44 9 -28 -18 10 -19 9 -11 -7 6 -10 24 -31 41 -47 34 -33 39 -46 16
-46 -19 0 -19 -11 0 -36 22 -29 18 -70 -11 -114 -32 -48 -44 -50 -44 -10 0 23
-7 33 -32 46 -39 19 -78 53 -78 68 0 6 5 5 12 -2 26 -26 25 -9 -3 60 -52 126
-79 208 -68 208 5 0 14 -10 19 -22 5 -13 9 -18 10 -13 0 6 2 47 5 93 3 53 14
109 31 155 14 40 36 108 49 152 45 157 61 191 174 359 24 36 47 66 50 66 4 0
5 -17 3 -37z m28 -70 c8 -17 16 -89 20 -176 4 -90 11 -152 18 -159 9 -9 12 -6
12 13 0 36 12 44 27 17 17 -31 16 -16 -7 137 -23 156 -24 168 -5 135 24 -41
56 -153 75 -267 11 -61 18 -87 17 -60 -1 26 1 47 4 47 14 0 33 -65 55 -195 32
-186 31 -216 -6 -282 -16 -29 -30 -56 -30 -59 0 -4 24 16 53 43 30 28 72 60
95 72 53 27 169 44 252 36 87 -9 355 -72 400 -95 19 -10 76 -57 125 -104 51
-49 99 -86 110 -86 11 0 43 7 70 15 119 37 548 155 561 155 19 0 18 -29 -1
-36 -21 -9 -19 -24 4 -24 29 0 121 -108 121 -142 0 -18 -22 -59 -61 -115 -79
-113 -127 -163 -213 -224 -116 -82 -228 -104 -397 -78 -39 6 -73 8 -76 6 -8
-9 66 -27 153 -38 101 -13 178 -1 274 41 85 37 169 50 188 28 9 -12 6 -23 -20
-57 -23 -33 -28 -45 -18 -51 17 -10 -99 -37 -221 -50 -52 -5 -150 -9 -219 -7
-117 2 -127 1 -158 -22 -41 -29 -35 -39 10 -14 28 15 50 17 148 14 180 -7 302
-5 343 7 20 6 35 6 32 1 -10 -15 -134 -48 -225 -59 -115 -14 -190 -30 -190
-39 0 -4 15 -6 33 -4 40 4 30 -1 -113 -56 l-105 -40 43 -7 c23 -3 42 -10 42
-14 0 -4 -36 -22 -80 -40 -84 -34 -106 -50 -70 -50 43 0 13 -25 -68 -58 -63
-25 -103 -34 -170 -38 -63 -4 -83 -3 -72 5 8 6 25 11 36 11 53 0 255 126 260
162 3 21 -12 19 -116 -18 l-65 -23 43 0 c23 -1 42 -4 42 -8 0 -13 -65 -53
-116 -72 -42 -16 -131 -33 -224 -44 l-25 -2 25 -15 c47 -26 214 -43 270 -26
22 6 20 3 -13 -27 -22 -20 -72 -48 -120 -66 l-82 -31 62 4 c38 2 84 14 119 30
31 15 59 25 61 23 2 -2 -16 -22 -40 -44 -27 -25 -101 -69 -188 -111 -86 -42
-157 -84 -176 -104 -68 -70 -95 -181 -81 -333 4 -49 5 -91 3 -93 -9 -10 -45
45 -62 93 -34 99 -14 287 43 398 22 42 -2 33 -36 -15 -41 -56 -60 -126 -60
-219 0 -106 28 -191 88 -269 26 -34 54 -71 62 -82 14 -20 14 -21 -10 -8 -48
25 -113 84 -155 141 -124 168 -170 485 -81 558 13 11 16 11 16 0 0 -8 8 -5 23
8 38 35 69 47 142 52 l70 6 -38 23 c-106 67 -245 12 -278 -110 -11 -42 -7
-158 7 -222 10 -43 -8 -26 -42 41 -39 78 -46 197 -15 267 11 25 28 49 38 52
10 3 45 19 78 35 79 39 172 53 255 40 72 -12 87 -9 39 8 -31 10 -31 12 -14 25
16 12 12 12 -31 5 -107 -17 -115 -3 -16 34 37 15 57 26 45 26 -33 1 -28 18 17
63 22 22 40 42 40 44 0 2 -13 4 -30 4 -24 0 -32 -6 -43 -32 -20 -46 -41 -61
-127 -91 -92 -33 -165 -35 -221 -7 -63 32 -100 110 -57 118 11 2 29 -15 52
-50 38 -55 42 -55 26 0 -15 54 12 105 89 168 36 30 88 66 115 79 28 14 43 25
35 25 -24 -1 -99 -38 -140 -71 -22 -17 -42 -30 -44 -28 -8 8 66 211 104 286
45 89 88 152 149 217 48 51 50 56 22 49 -33 -9 -150 -123 -175 -172 -35 -68
-89 -126 -143 -152 -40 -20 -69 -24 -187 -30 -128 -5 -146 -8 -200 -34 -33
-16 -64 -31 -69 -33 -16 -8 4 72 34 133 52 107 122 171 298 271 42 24 74 44
70 44 -3 0 -57 -22 -120 -49 -62 -27 -115 -47 -117 -45 -7 7 42 74 77 105 38
34 120 74 210 103 28 10 50 21 47 25 -2 5 20 26 50 47 81 58 69 73 -19 25 -40
-23 -78 -41 -84 -41 -17 0 -40 89 -52 205 -6 61 -16 127 -21 147 -10 38 -58
104 -59 81 0 -24 -20 -13 -46 27 -26 39 -27 43 -18 118 5 42 9 139 8 215 -1
75 2 137 6 137 4 0 13 -12 20 -27z m-26 -481 c79 -118 104 -174 79 -180 -17
-4 -16 -18 2 -78 19 -64 19 -88 0 -80 -23 9 -18 -3 20 -45 21 -24 32 -45 29
-54 -6 -15 -85 -75 -100 -75 -4 0 -4 25 -1 56 7 66 -3 61 -28 -13 -21 -67 -32
-74 -40 -26 -21 123 -54 209 -109 282 -34 45 -33 57 2 33 15 -10 45 -29 67
-42 l39 -24 -27 35 c-33 44 -34 51 -2 39 32 -12 31 -8 -5 44 -33 48 -65 124
-57 132 3 3 13 -8 22 -25 8 -17 21 -31 29 -31 11 0 11 9 0 52 -11 42 -10 128
1 116 2 -2 37 -54 79 -116z m530 26 c4 39 11 74 15 76 4 3 17 -48 30 -112 12
-64 25 -127 28 -140 5 -22 3 -23 -43 -20 l-49 3 0 40 c-1 39 -21 95 -35 95
-16 0 -18 -15 -5 -41 24 -45 17 -57 -10 -17 -33 49 -32 69 13 147 l37 66 5
-85 5 -85 9 73z m-144 -91 c84 -67 112 -95 105 -107 -6 -10 -121 -33 -133 -26
-13 8 -59 123 -68 171 -8 45 -10 46 96 -38z m1660 -187 c17 -11 19 -9 -51 -48
-64 -36 -69 -37 -69 -19 0 17 25 40 65 61 35 18 35 19 55 6z m-2240 -362 c0
-7 -14 -8 -37 -5 -42 7 -89 48 -109 94 -29 67 -15 66 66 -7 44 -40 80 -77 80
-82z m68 -69 c-13 -36 -61 -69 -103 -69 -29 -1 -29 -1 -10 -16 20 -15 19 -16
-19 -50 -37 -32 -111 -62 -123 -50 -3 3 22 38 56 78 45 54 78 81 124 105 80
42 89 42 75 2z m-315 -38 c42 -30 77 -58 77 -63 0 -15 -38 -8 -77 13 l-38 21
40 -35 40 -35 -95 -90 c-52 -49 -123 -123 -158 -165 -57 -70 -60 -76 -40 -79
21 -3 19 -6 -17 -30 -22 -15 -81 -40 -130 -56 -50 -16 -106 -37 -124 -46 -18
-10 -35 -15 -38 -12 -3 3 46 53 108 112 235 222 278 275 313 388 5 16 9 16 23
5 14 -12 15 -11 9 11 -4 14 -10 33 -12 43 -11 36 13 15 39 -35 15 -30 25 -42
22 -28 -2 14 -6 39 -9 56 -2 17 -9 41 -15 52 -24 45 -19 44 82 -27z m-165 -33
c-8 -132 -113 -265 -241 -307 -21 -7 -40 -11 -43 -8 -3 2 26 28 63 58 99 77
132 109 164 158 40 63 36 68 -12 16 -22 -24 -62 -57 -87 -73 -83 -52 -182 -72
-108 -22 19 14 64 58 98 99 35 41 73 86 86 100 l23 26 -6 -25 c-5 -24 -4 -23
22 7 15 18 32 33 37 33 4 0 7 -28 4 -62z m372 -117 c0 -22 -98 -114 -181 -171
-67 -46 -87 -65 -78 -71 17 -11 -8 -33 -58 -51 -18 -7 -33 -16 -33 -20 0 -29
113 22 208 95 75 56 87 64 77 46 -5 -8 -17 -26 -27 -41 -11 -16 -16 -28 -11
-28 4 0 60 16 123 36 83 26 141 37 208 41 100 6 103 4 83 -50 -11 -29 -229
-229 -283 -261 -21 -11 -38 -24 -38 -28 0 -11 96 29 138 57 58 40 72 29 22
-16 -51 -46 -112 -80 -185 -102 -27 -8 -81 -27 -119 -41 -37 -14 -76 -26 -85
-26 -21 0 178 199 307 307 56 47 101 87 99 89 -1 2 -57 -14 -123 -35 -154 -50
-304 -81 -423 -88 l-95 -6 33 45 c142 197 182 233 336 295 84 34 105 39 105
24z m475 -163 c-10 -48 -40 -92 -83 -122 -21 -14 -41 -26 -45 -26 -12 0 -8
125 5 138 7 7 29 12 49 12 20 0 42 7 49 15 21 25 32 17 25 -17z m-654 -295
c-6 -22 -32 -73 -57 -113 -26 -41 -53 -84 -60 -96 -7 -12 -50 -40 -96 -64
-140 -72 -159 -93 -189 -210 -9 -38 -12 -41 -21 -26 -7 13 -7 41 1 90 13 80
100 266 152 326 l31 35 -7 -30 c-3 -16 -19 -52 -36 -79 -45 -73 -28 -66 21 9
46 71 64 83 50 33 -11 -35 -36 -74 -94 -142 -21 -26 -37 -49 -34 -51 8 -8 138
107 158 140 23 36 43 130 35 156 -3 10 -21 23 -40 29 -19 6 -35 15 -35 19 0 4
51 14 113 22 125 16 125 16 108 -48z m410 -60 c-6 -48 -9 -88 -8 -90 2 -1 14
43 26 98 15 62 27 99 35 96 6 -2 17 -51 25 -110 13 -104 23 -128 36 -87 7 23
8 23 57 10 l37 -11 -39 -39 c-70 -70 -85 -110 -85 -227 0 -57 -2 -103 -5 -103
-7 0 -82 122 -114 187 -51 102 -69 222 -45 292 8 24 14 29 24 21 9 -8 18 2 36
42 29 67 35 45 20 -79z m-727 63 c-3 -17 -13 -43 -20 -58 -16 -30 -201 -184
-211 -175 -12 13 50 99 112 153 36 32 65 62 65 67 0 5 -28 -17 -62 -48 -66
-59 -84 -59 -47 1 32 52 91 92 134 91 34 -1 35 -2 29 -31z m-188 -65 c-18 -27
-41 -79 -51 -115 -20 -74 -39 -89 -29 -23 9 57 39 126 71 160 41 42 45 32 9
-22z m726 -288 c3 -136 5 -153 29 -203 15 -30 34 -64 44 -75 l17 -20 -7 20
c-72 204 -83 255 -71 319 10 52 26 44 26 -13 0 -103 25 -151 223 -426 54 -75
97 -141 95 -145 -5 -13 -226 123 -285 175 -97 85 -144 175 -162 311 -13 95 -3
150 34 182 50 43 53 35 57 -125z m-251 44 l1 -32 11 28 c6 15 16 26 21 24 6
-2 39 -91 74 -198 84 -258 85 -317 5 -390 -29 -28 -73 -54 -73 -44 0 3 10 20
23 36 18 25 22 44 22 102 0 68 -3 79 -59 191 -55 111 -60 125 -64 201 -3 51 0
90 7 104 16 28 31 18 32 -22z m-710 9 c25 23 33 14 12 -15 -18 -26 -86 -60
-121 -61 -32 0 -26 11 33 58 45 36 50 38 53 20 3 -19 4 -19 23 -2z m294 7
c-16 -39 -16 -123 -1 -199 10 -43 19 -89 22 -101 10 -51 -15 -17 -64 85 -35
71 -52 120 -52 145 0 42 15 50 24 12 10 -38 23 -30 41 25 9 28 21 50 27 50 6
0 7 -7 3 -17z m544 -110 c7 -54 14 -111 17 -128 11 -54 -14 -14 -30 51 -21 81
-21 174 -1 174 2 0 8 -44 14 -97z m-756 -42 c-17 -22 -53 -50 -129 -98 -17
-10 -17 -12 -2 -12 9 -1 45 18 80 42 94 64 91 63 83 36 -11 -37 -35 -60 -90
-85 -32 -15 -68 -24 -100 -24 -92 0 -88 10 46 110 99 74 125 89 127 75 2 -10
-5 -29 -15 -44z m513 7 c-4 -18 -10 -49 -13 -68 -5 -33 -5 -34 10 -15 8 11 17
18 20 15 5 -5 -89 -349 -97 -357 -5 -5 -109 187 -126 232 -12 33 -5 96 16 138
8 15 16 27 17 27 1 0 4 -30 5 -67 1 -38 6 -84 11 -103 l9 -35 1 41 c2 68 20
144 43 182 31 50 32 28 3 -58 -14 -40 -25 -83 -24 -94 0 -12 6 -4 13 19 24 76
85 175 108 175 7 0 8 -12 4 -32z m558 -105 c91 -123 157 -246 141 -261 -3 -4
-9 -2 -13 4 -4 6 -46 64 -93 130 -48 65 -97 139 -109 164 -26 51 -42 100 -32
99 4 0 52 -61 106 -136z m826 1 c-83 -137 -94 -171 -95 -299 0 -100 3 -115 28
-169 43 -92 84 -134 236 -241 77 -55 141 -103 141 -106 0 -4 -30 4 -67 18
l-67 24 19 -23 c11 -13 35 -40 54 -60 46 -49 26 -48 -69 3 -195 106 -303 235
-345 411 -41 174 9 329 153 480 30 32 57 56 60 54 2 -3 -20 -44 -48 -92z m-56
54 c-5 -7 -22 -33 -40 -58 -72 -101 -114 -221 -114 -321 1 -175 110 -381 297
-560 89 -85 252 -198 339 -234 59 -24 59 -24 22 -25 -44 0 -180 42 -225 70
-18 11 -33 16 -33 11 0 -14 63 -66 153 -125 46 -30 90 -62 97 -71 12 -14 10
-15 -13 -10 -15 4 -27 3 -27 -1 0 -5 11 -49 25 -99 14 -49 25 -96 25 -103 0
-25 -17 -3 -35 45 -26 68 -62 118 -141 193 -116 111 -134 131 -236 265 -54 71
-139 184 -188 250 -154 202 -224 378 -199 497 26 120 80 185 204 244 105 50
98 47 89 32z m-1760 -84 c3 -9 6 -25 6 -37 1 -22 1 -22 13 1 28 49 37 -18 12
-88 -20 -56 -20 -56 19 -26 36 27 49 23 46 -17 -3 -38 -1 -40 19 -16 l19 24
26 -24 c14 -14 26 -27 26 -30 0 -3 -43 -55 -95 -114 -66 -77 -100 -125 -115
-163 -27 -74 -25 -100 5 -44 35 67 92 128 159 172 32 21 63 38 68 38 4 0 8
-12 8 -26 0 -17 -17 -43 -51 -80 -29 -30 -48 -54 -44 -54 21 0 97 54 129 92
l36 43 0 -30 c0 -42 -89 -122 -168 -153 -93 -35 -138 -73 -159 -131 -9 -27
-21 -47 -25 -45 -14 9 -9 187 7 248 9 33 29 91 45 129 16 39 28 72 27 74 -2 1
-25 -27 -52 -63 -26 -36 -64 -82 -84 -101 -34 -33 -129 -89 -137 -80 -2 2 47
64 108 138 62 74 103 127 93 119 -17 -12 -218 -178 -278 -228 -9 -9 -20 -12
-24 -9 -3 4 34 49 84 100 121 125 174 199 218 307 38 91 48 103 59 74z m1850
-69 c-12 -54 -20 -235 -10 -224 3 2 10 45 16 94 12 90 29 136 31 80 l0 -30 10
25 c15 38 24 12 38 -110 7 -58 15 -115 18 -127 8 -34 -13 -28 -26 7 -15 44
-24 37 -16 -12 11 -65 42 -140 85 -207 22 -34 34 -61 28 -61 -6 0 -44 21 -84
46 -205 127 -251 335 -118 533 20 29 37 51 39 49 2 -2 -3 -30 -11 -63z m-1364
13 c29 -31 23 -83 -19 -168 -43 -86 -7 -53 44 40 l35 65 0 -39 c0 -33 2 -37
15 -26 23 19 31 -14 11 -45 -16 -24 -184 -140 -192 -132 -2 2 12 75 31 162 19
87 35 159 35 161 0 11 22 1 40 -18z m-570 -23 c0 -16 -100 -154 -164 -225 -86
-96 -128 -162 -171 -271 -18 -44 -35 -83 -39 -86 -12 -12 -6 74 9 132 25 97
168 324 235 373 29 22 42 18 18 -6 -6 -6 -9 -14 -6 -17 3 -4 27 19 54 49 43
50 64 67 64 51z m1253 -85 c68 -127 124 -198 216 -276 45 -37 79 -69 77 -71
-6 -7 -419 136 -431 149 -7 7 3 9 35 4 118 -15 150 -18 150 -14 0 3 -11 25
-24 49 -13 24 -37 85 -51 134 -15 50 -30 96 -32 103 -3 6 -1 12 4 12 4 0 30
-40 56 -90z m-1653 -26 c0 -10 -146 -72 -221 -93 -93 -26 -106 -27 -89 -5 21
25 46 35 174 69 137 37 136 37 136 29z m1298 -45 c18 -34 9 -88 -27 -165 -43
-92 -15 -75 33 20 l39 77 23 -22 c34 -32 30 -51 -23 -111 -76 -86 -128 -162
-159 -232 -16 -36 -32 -66 -36 -66 -13 0 -60 69 -74 107 -20 58 -18 130 5 142
10 6 24 24 31 41 20 49 30 35 24 -37 l-5 -68 39 105 c54 145 62 163 67 158 2
-2 -11 -51 -30 -108 -18 -58 -36 -123 -39 -145 l-7 -40 26 55 c43 91 67 171
72 248 6 76 17 87 41 41z m-1298 -29 c0 -10 -179 -160 -192 -160 -16 0 -7 30
19 61 30 35 138 109 160 109 7 0 13 -4 13 -10z m114 -59 c-15 -28 -31 -51 -36
-51 -13 0 -10 6 23 60 40 65 50 58 13 -9z m864 -99 c-6 -31 -7 -69 -1 -103
l10 -54 8 63 c4 34 9 61 11 59 2 -2 10 -51 18 -108 13 -93 21 -118 79 -239
l65 -135 -5 63 c-7 79 9 82 26 5 19 -86 66 -176 119 -230 27 -28 107 -84 187
-132 135 -80 185 -116 185 -132 0 -10 -230 126 -339 201 -47 32 -125 92 -172
132 -47 40 -107 91 -134 112 -97 79 -155 212 -155 353 0 80 15 126 52 162 46
45 57 41 46 -17z m600 -44 c51 -35 53 -48 8 -48 -50 0 -53 -16 -4 -24 44 -7
134 -43 127 -51 -3 -2 -54 -8 -115 -13 -124 -11 -172 -29 -221 -86 -18 -19
-34 -51 -38 -73 -13 -78 35 -208 106 -284 l40 -44 -23 40 c-49 83 -63 127 -63
199 0 40 5 71 11 73 5 2 21 -33 34 -78 32 -111 80 -179 188 -266 98 -80 160
-152 191 -226 33 -77 27 -85 -26 -35 -27 24 -93 70 -148 102 -79 46 -121 80
-198 160 -167 171 -201 238 -195 386 4 115 42 197 133 286 l65 64 43 -26 c23
-15 61 -40 85 -56z m-1571 -165 c2 -90 0 -114 -10 -104 -18 18 -13 221 6 221
1 0 3 -53 4 -117z m823 44 c1 -99 24 -207 61 -277 45 -86 46 -88 19 -65 -37
32 -99 135 -116 191 -8 28 -15 84 -17 124 -1 60 2 74 17 86 29 20 36 9 36 -59z
m999 -11 c25 -19 55 -44 65 -55 12 -13 26 -19 37 -16 25 8 133 -31 193 -69 82
-52 123 -108 153 -206 22 -73 30 -86 47 -85 45 1 395 -386 396 -437 0 -19 -32
8 -52 43 -12 21 -23 37 -25 35 -2 -2 15 -35 37 -73 49 -85 122 -157 213 -207
37 -21 66 -40 65 -42 -8 -7 -204 18 -234 31 -41 17 -85 77 -129 178 -43 100
-170 290 -229 345 -64 59 -92 56 -126 -13 -22 -44 -25 -63 -25 -157 0 -58 -3
-104 -7 -102 -4 3 -19 44 -34 92 -44 149 -75 221 -126 299 -52 77 -56 97 -13
69 14 -9 37 -24 52 -33 30 -20 29 -22 7 32 -8 20 34 20 80 1 41 -17 65 -49 73
-98 6 -43 18 -49 27 -15 35 133 -44 212 -292 293 -57 18 -119 45 -137 59 -33
24 -67 84 -79 138 -8 36 6 35 63 -7z m-1984 -37 c-8 -59 8 -62 19 -4 4 19 12
35 18 35 13 0 2 -62 -19 -107 -14 -31 -78 -81 -89 -71 -2 3 9 43 26 89 17 46
33 90 35 97 11 30 16 8 10 -39z m867 9 c16 -13 121 -279 113 -286 -2 -3 -18 1
-36 7 -18 6 -71 11 -118 11 -90 0 -131 7 -131 20 0 5 10 10 23 12 18 4 15 7
-22 23 -42 18 -43 19 -20 28 23 9 131 3 177 -9 20 -6 19 -3 -9 27 -63 67 -86
161 -41 172 32 9 48 7 64 -5z m-432 -3 c0 -10 -32 -57 -95 -140 -33 -44 -61
-82 -62 -84 -2 -2 -6 -2 -9 2 -3 3 5 30 18 59 32 69 148 197 148 163z m37 -67
c-13 -32 -125 -128 -148 -128 -5 0 26 40 68 90 78 89 107 103 80 38z m1437
-123 c18 -27 41 -57 52 -65 18 -14 18 -14 3 10 -73 117 -82 151 -23 89 16 -17
62 -58 101 -91 82 -66 110 -109 153 -227 34 -91 33 -91 21 -91 -5 0 -19 21
-31 46 -32 66 -92 119 -185 163 -88 42 -140 87 -162 139 -17 41 -32 119 -25
127 9 9 61 -46 96 -100z m-222 78 c10 -9 18 -24 18 -33 0 -41 33 -119 65 -158
23 -26 61 -53 103 -73 157 -75 242 -146 302 -253 18 -31 64 -91 102 -134 109
-120 135 -154 164 -215 36 -79 25 -93 -19 -25 -47 74 -100 112 -201 143 -93
28 -159 73 -194 131 -71 119 -92 158 -87 162 8 8 42 -26 101 -104 51 -66 105
-117 103 -97 0 5 -37 62 -82 128 l-82 119 -110 58 c-122 65 -198 131 -235 206
-29 57 -39 140 -19 153 22 14 51 11 71 -8z m91 3 c15 -16 91 -226 83 -233 -9
-9 -44 17 -79 57 -37 44 -57 97 -57 154 0 29 4 36 19 36 11 0 26 -6 34 -14z
m-1087 -192 c154 -51 189 -72 307 -194 111 -113 163 -148 268 -175 29 -8 54
-13 56 -11 1 1 -37 21 -85 44 -48 22 -103 55 -122 72 l-35 31 55 -7 c66 -8
210 -53 279 -89 28 -14 51 -22 51 -18 -1 5 -37 33 -81 63 -85 57 -91 80 -11
38 591 -309 747 -409 862 -554 56 -70 130 -206 144 -264 7 -29 14 -37 -68 88
-67 102 -187 189 -299 216 -41 10 -27 -7 36 -42 177 -100 310 -259 361 -431
16 -54 22 -120 10 -108 -4 3 -32 61 -63 127 -32 67 -70 137 -85 156 -40 51
-112 87 -308 155 -98 34 -186 68 -195 75 -16 12 -10 14 42 15 l60 2 -55 9
c-167 30 -294 58 -303 67 -16 16 37 14 197 -9 77 -11 142 -18 144 -15 8 8
-141 74 -204 90 -46 12 -102 15 -215 13 -164 -3 -205 5 -149 28 26 11 50 12
127 3 52 -6 96 -9 99 -7 22 23 -132 111 -308 176 -94 35 -208 96 -283 152 -82
62 -151 95 -246 117 -45 11 -65 20 -56 26 12 8 -92 4 -233 -9 -52 -5 -76 -2
-122 16 -32 12 -58 26 -58 31 0 5 46 9 101 9 89 0 100 2 89 15 -11 13 -1 15
84 15 112 0 228 -21 303 -55 32 -15 87 -57 143 -109 54 -52 114 -98 151 -117
77 -39 195 -69 269 -69 47 0 74 -8 151 -44 96 -46 269 -100 356 -111 78 -10
33 10 -216 95 -191 65 -243 79 -332 88 -168 18 -265 64 -352 165 -58 68 -127
120 -252 192 -90 51 -139 85 -124 85 4 0 55 -16 115 -36z m311 -40 c18 -3 60
-26 93 -51 46 -34 64 -43 70 -33 6 10 15 10 46 0 58 -19 62 -28 19 -46 -53
-22 -80 -15 -257 71 l-153 75 75 -6 c41 -3 89 -7 107 -10z m-377 -206 c19 -6
76 -32 125 -59 70 -37 215 -89 250 -89 3 0 29 -21 58 -47 30 -27 77 -60 106
-75 28 -16 51 -32 51 -37 0 -12 -315 70 -418 108 -123 47 -142 55 -142 63 0
11 -2 11 130 -22 135 -34 154 -36 125 -14 -57 45 -253 124 -405 165 -45 12
-45 12 -15 20 33 7 82 3 135 -13z m1968 -144 c61 -81 131 -218 173 -341 35
-105 57 -252 42 -285 -9 -20 -11 -17 -23 32 -30 131 -92 223 -189 280 -84 50
-134 103 -169 179 -22 47 -27 71 -27 143 0 113 18 137 35 46 20 -107 49 -157
149 -262 53 -56 104 -112 114 -126 12 -17 11 -12 -3 16 -12 22 -57 79 -101
127 -43 48 -88 106 -100 128 -22 44 -36 136 -25 164 6 16 10 15 39 -8 17 -13
56 -55 85 -93z m-2263 52 c137 -30 369 -173 459 -281 45 -54 108 -156 101
-163 -2 -3 -11 1 -20 8 -9 7 -3 -17 17 -64 17 -41 28 -79 25 -83 -4 -4 -47 31
-95 78 -48 47 -106 100 -130 119 -48 37 -50 54 -2 20 34 -24 47 -22 32 7 -17
32 -206 209 -264 247 -30 20 -89 49 -129 63 -68 24 -90 27 -272 31 -194 4
-223 11 -142 31 56 14 336 5 420 -13z m-126 -67 c108 -17 108 -31 1 -25 -104
6 -143 14 -134 27 7 12 54 11 133 -2z m694 -226 c43 -33 73 -70 87 -109 16
-40 41 -267 31 -277 -17 -17 -63 85 -82 181 -12 59 -33 124 -53 165 -19 37
-31 67 -27 67 4 0 24 -12 44 -27z m168 -21 c15 -9 46 -32 70 -51 59 -45 169
-96 255 -117 38 -9 89 -27 114 -40 90 -45 155 -139 165 -241 5 -48 5 -48 -9
-18 -19 38 -19 16 -1 -60 24 -98 17 -101 -39 -15 -21 34 -40 59 -42 57 -3 -2
25 -69 61 -147 36 -79 65 -145 65 -147 0 -12 -37 4 -107 47 -85 50 -95 52 -67
12 9 -13 14 -25 11 -28 -12 -13 -326 237 -429 343 -46 47 -47 50 -77 188 -17
77 -31 146 -31 155 0 29 42 -27 61 -81 14 -41 18 -47 19 -27 0 23 -25 101 -55
171 -9 22 3 22 36 -1z m1214 -70 c28 -19 44 -28 36 -18 -8 9 -11 19 -8 23 4 3
35 -20 71 -51 35 -31 71 -56 80 -56 9 0 30 -19 46 -43 33 -46 140 -276 213
-458 42 -102 47 -124 47 -192 0 -81 -11 -105 -28 -59 -6 15 -33 87 -60 160
l-49 133 -7 -48 c-6 -44 7 -149 19 -161 3 -3 5 10 5 28 0 53 18 24 35 -56 15
-72 19 -196 6 -227 -5 -14 -11 -4 -24 40 -10 33 -45 103 -77 157 -49 82 -63
115 -80 195 -40 185 -61 257 -95 328 -46 98 -110 194 -185 278 -34 39 -66 78
-72 88 -8 16 -5 16 34 -4 24 -12 66 -37 93 -57z m-588 12 c29 -4 51 -10 48
-14 -4 -7 -145 7 -154 15 -6 7 45 6 106 -1z m870 -112 c67 -54 126 -120 179
-203 47 -73 109 -198 101 -206 -3 -2 -23 17 -46 43 -23 26 -43 45 -46 43 -2
-3 14 -65 36 -138 21 -74 39 -138 39 -142 0 -31 -25 8 -83 129 -134 278 -239
497 -244 505 -11 19 20 4 64 -31z m-846 -140 c5 -13 21 -97 35 -185 33 -206
61 -295 119 -377 83 -120 105 -154 100 -158 -7 -8 -103 68 -143 113 -44 50
-87 134 -101 196 -5 24 -12 104 -16 177 -4 102 -11 151 -30 210 -14 42 -25 81
-25 86 0 16 51 -37 61 -62z m163 -36 c55 -26 93 -40 86 -31 -10 12 -10 15 2
15 18 0 53 -26 131 -97 56 -51 114 -89 123 -80 2 2 -18 18 -45 35 -47 29 -90
77 -78 88 13 13 118 -55 178 -115 68 -68 116 -152 126 -220 5 -35 5 -35 -35
25 -50 76 -72 93 -252 186 -80 41 -174 92 -210 113 -67 40 -150 110 -150 127
0 12 -3 13 124 -46z m326 -396 c14 -11 37 -20 52 -20 39 0 101 -59 128 -122
17 -40 21 -65 18 -115 -2 -35 0 -63 4 -63 4 0 8 4 8 10 0 5 10 35 21 66 18 46
23 54 31 40 23 -40 -22 -143 -106 -241 l-25 -30 -1 90 c0 50 -7 121 -15 158
-14 66 -61 185 -69 176 -3 -2 11 -48 30 -103 19 -54 34 -116 33 -139 0 -33 -2
-38 -9 -22 -22 48 -140 328 -140 331 0 9 17 2 40 -16z m374 -326 c17 -44 -10
-164 -34 -149 -13 8 -13 121 0 146 13 23 26 24 34 3z"/>
<path d="M3465 4965 c22 -7 48 -14 58 -14 10 -1 15 -5 12 -11 -4 -6 10 -10 34
-10 73 0 113 -26 202 -131 l39 -47 -51 15 c-80 23 -110 13 -198 -71 -42 -40
-108 -94 -147 -119 -63 -42 -173 -151 -163 -162 3 -2 38 26 79 62 41 36 103
79 138 96 60 28 68 29 140 22 126 -11 140 -10 165 13 13 12 26 22 30 22 16 0
5 -28 -19 -51 -21 -19 -36 -24 -80 -23 -30 0 -54 -4 -54 -9 0 -5 31 -7 70 -5
75 4 80 0 58 -47 -6 -14 -22 -28 -34 -31 -25 -6 -114 10 -182 33 -24 8 -46 12
-48 10 -10 -10 88 -58 134 -67 65 -12 113 2 163 47 58 53 65 70 39 95 -34 32
-22 51 40 63 l55 11 -30 16 c-36 19 -69 62 -95 123 -39 90 -171 157 -350 178
l-45 5 40 -13z m241 -291 c-6 -23 -5 -24 14 -14 19 10 21 9 18 -12 -2 -18 -9
-23 -33 -23 -26 0 -30 4 -33 29 -2 16 2 32 10 37 23 15 30 10 24 -17z m-63
-16 c8 -27 1 -38 -24 -38 -22 0 -23 1 -7 35 14 31 24 32 31 3z"/>
<path d="M3440 4921 c-43 -13 -84 -38 -110 -66 -24 -26 -22 -26 50 10 41 21
91 44 110 51 l35 13 -30 -1 c-16 0 -41 -3 -55 -7z"/>
<path d="M4235 4765 c-66 -19 -139 -42 -162 -50 -47 -18 -83 -56 -83 -88 0
-18 2 -17 21 7 28 36 71 56 234 111 77 26 142 48 144 51 11 11 -44 -1 -154
-31z"/>
<path d="M3256 4709 c-31 -33 -91 -107 -133 -162 -42 -56 -97 -124 -122 -151
-39 -41 -42 -47 -21 -41 38 12 75 43 101 86 71 118 102 162 169 237 84 96 90
122 6 31z"/>
<path d="M4712 4731 c-17 -48 -14 -63 4 -22 8 19 13 39 11 45 -2 6 -9 -5 -15
-23z"/>
<path d="M2880 4516 c-129 -71 -176 -104 -237 -169 -59 -62 -67 -78 -25 -49
15 11 76 43 136 71 102 48 183 98 173 107 -2 2 -39 -12 -82 -31 -43 -20 -82
-34 -88 -32 -6 2 45 36 111 76 67 41 122 76 122 77 0 9 -21 0 -110 -50z"/>
<path d="M3919 4517 c-9 -12 -24 -35 -34 -52 -16 -28 -16 -28 14 5 37 41 55
70 44 70 -4 0 -15 -11 -24 -23z"/>
<path d="M3970 4360 c-45 -38 -33 -38 28 0 34 21 41 30 27 30 -12 0 -36 -13
-55 -30z"/>
<path d="M3738 4300 c-18 -16 -28 -30 -22 -30 5 0 23 14 39 30 37 39 25 39
-17 0z"/>
<path d="M3286 4309 c-49 -5 -92 -11 -95 -14 -6 -6 126 3 224 15 l60 7 -50 0
c-27 0 -90 -4 -139 -8z"/>
<path d="M3675 4299 c-16 -10 -26 -19 -22 -19 11 0 67 29 67 35 0 9 -15 4 -45
-16z"/>
<path d="M3540 4260 c-25 -5 -111 -6 -192 -2 -107 4 -155 2 -177 -8 -17 -7
-31 -16 -31 -21 0 -5 12 -4 28 2 16 7 73 10 137 8 163 -5 226 -1 270 15 44 16
34 18 -35 6z"/>
<path d="M3261 4039 c-26 -10 -142 -101 -137 -107 8 -8 206 99 201 108 -8 12
-32 12 -64 -1z"/>
<path d="M3803 3969 c-46 -29 -41 -36 5 -8 46 28 47 29 36 29 -5 0 -24 -10
-41 -21z"/>
<path d="M3159 3511 c-32 -32 -42 -65 -11 -39 9 8 32 26 50 41 30 24 31 27 12
27 -12 0 -35 -13 -51 -29z"/>
<path d="M2320 2634 c1 -52 54 -177 89 -208 17 -15 10 7 -29 94 -51 114 -60
132 -60 114z"/>
<path d="M2650 2724 c-12 -19 -20 -37 -18 -39 2 -3 15 13 27 35 28 50 21 53
-9 4z"/>
<path d="M2970 2165 c0 -18 117 -140 126 -132 4 4 -22 38 -59 75 -37 37 -67
62 -67 57z"/>
<path d="M4026 1739 c28 -30 82 -64 89 -57 5 4 -102 88 -112 88 -4 0 6 -14 23
-31z"/>
<path d="M2700 1855 c19 -7 44 -13 55 -13 13 0 7 5 -15 13 -19 7 -44 13 -55
13 -13 0 -7 -5 15 -13z"/>
<path d="M2966 1781 c13 -11 254 -85 260 -79 8 8 -92 48 -173 69 -85 21 -102
23 -87 10z"/>
<path d="M3620 1508 c0 -3 13 -34 30 -70 16 -35 39 -97 49 -138 11 -41 20 -64
20 -50 1 52 -46 189 -83 242 -9 12 -16 20 -16 16z"/>
<path d="M3550 689 c0 -5 5 -7 10 -4 6 3 10 8 10 11 0 2 -4 4 -10 4 -5 0 -10
-5 -10 -11z"/>
<path d="M3090 984 c0 -12 7 -27 15 -34 19 -16 19 -3 0 30 -13 24 -14 24 -15
4z"/>
</g>
</svg>
