<?xml version="1.0" standalone="no"?>
<!DOCTYPE svg PUBLIC "-//W3C//DTD SVG 20010904//EN"
 "http://www.w3.org/TR/2001/REC-SVG-20010904/DTD/svg10.dtd">
<svg version="1.0" xmlns="http://www.w3.org/2000/svg"
 width="628.000000pt" height="542.000000pt" viewBox="0 0 628.000000 542.000000"
 preserveAspectRatio="xMidYMid meet">

<g transform="translate(0.000000,542.000000) scale(0.100000,-0.100000)"
fill="#000000" stroke="none">
<path d="M2044 5056 c-61 -27 -101 -90 -144 -227 -61 -194 -64 -217 -51 -381
6 -79 18 -167 27 -197 14 -47 15 -70 4 -197 -12 -149 -8 -220 17 -289 18 -48
17 -138 -1 -199 -8 -25 -40 -77 -71 -118 -50 -63 -133 -213 -123 -223 2 -2 29
12 61 31 51 30 73 34 48 8 -18 -18 -50 -113 -75 -224 -14 -61 -37 -137 -51
-167 -14 -31 -23 -58 -21 -61 3 -2 30 17 62 42 31 26 59 45 61 42 12 -12 -62
-181 -95 -218 -14 -17 -13 -18 8 -18 30 0 93 -22 102 -35 4 -5 8 -43 8 -83 0
-40 6 -88 14 -107 28 -67 145 -231 231 -325 113 -123 151 -181 185 -281 l27
-81 19 46 c21 50 29 56 39 26 3 -11 51 -68 106 -127 147 -159 229 -293 229
-375 0 -38 18 -7 38 67 21 79 35 86 68 38 40 -60 64 -180 71 -348 3 -86 9
-152 14 -148 4 4 24 60 44 123 57 179 88 471 65 610 -9 54 -15 69 -20 55 -15
-41 -40 -132 -40 -148 0 -65 -76 63 -110 185 l-18 63 -12 -30 c-6 -16 -15 -57
-18 -90 l-7 -60 -76 75 c-86 85 -152 181 -173 251 -8 26 -18 84 -22 129 -4 45
-10 78 -14 73 -5 -4 -19 -35 -33 -68 -14 -33 -31 -60 -37 -60 -17 0 -88 120
-101 170 -6 22 -9 74 -7 116 4 62 12 91 41 154 21 43 44 110 52 149 17 82 20
166 5 166 -5 0 -10 -11 -10 -25 0 -39 -25 -81 -67 -112 -21 -15 -71 -58 -112
-95 -100 -92 -113 -89 -66 16 14 31 25 60 25 65 0 4 -23 -3 -50 -17 -28 -14
-53 -22 -57 -19 -12 13 -3 233 12 292 19 70 68 163 136 257 27 37 49 70 49 74
0 3 -20 4 -45 2 -56 -4 -58 9 -10 57 25 25 45 35 66 35 79 0 102 -44 109 -210
5 -118 8 -129 39 -188 39 -72 91 -122 127 -122 16 0 42 16 72 44 43 39 82 66
96 66 3 0 6 -28 6 -63 0 -60 23 -162 39 -180 5 -4 11 14 14 42 8 65 28 102 98
181 36 42 72 96 97 152 56 121 107 165 143 122 9 -11 17 -56 21 -118 3 -56 9
-121 13 -146 4 -29 1 -52 -7 -66 -65 -106 -78 -133 -78 -161 0 -31 0 -31 37
-21 39 11 318 6 344 -6 14 -6 16 -2 9 32 -4 22 -20 61 -36 87 -58 95 -58 93
-45 160 6 34 11 96 11 136 0 168 79 158 162 -21 25 -53 62 -109 99 -151 67
-76 98 -137 99 -193 0 -25 4 -36 9 -30 18 19 41 119 41 181 0 35 3 63 6 63 14
0 53 -27 96 -66 30 -28 56 -44 72 -44 38 0 91 54 131 132 34 68 35 75 35 180
0 89 4 116 20 148 37 72 98 81 155 25 48 -48 46 -61 -10 -57 -25 2 -45 1 -45
-2 0 -3 25 -41 56 -83 113 -157 146 -252 147 -425 0 -59 -2 -111 -6 -114 -4
-4 -30 5 -59 19 -29 14 -54 25 -56 23 -1 -2 11 -31 28 -64 16 -32 30 -69 30
-81 l0 -22 -32 23 c-60 41 -247 235 -254 262 -3 14 -11 26 -16 26 -15 0 -1
-108 21 -172 11 -29 35 -90 55 -136 51 -119 64 -198 43 -265 -18 -58 -87 -179
-106 -185 -6 -2 -14 5 -18 15 -3 10 -17 43 -31 73 l-25 55 -13 -103 c-15 -121
-42 -187 -114 -278 -49 -61 -135 -144 -150 -144 -4 0 -10 24 -13 53 -3 28 -11
66 -17 82 -12 30 -12 29 -34 -45 -24 -82 -85 -206 -96 -193 -3 4 -12 31 -18
58 -7 28 -18 68 -24 90 l-11 40 -8 -30 c-26 -91 -18 -320 17 -505 15 -79 71
-259 85 -275 5 -5 9 31 9 85 0 197 35 368 87 430 31 37 33 34 57 -60 17 -67
36 -100 36 -64 0 36 37 130 73 187 19 29 84 109 145 175 61 67 114 131 117
142 10 30 18 24 39 -27 l20 -48 16 55 c29 97 73 172 153 259 98 109 186 224
239 314 39 65 42 77 48 163 3 52 8 95 11 97 12 8 78 27 96 27 20 0 20 3 -13
57 -37 61 -77 160 -71 176 1 5 29 -12 61 -37 32 -26 60 -46 62 -43 2 2 -7 29
-21 59 -14 30 -36 104 -49 164 -27 120 -49 186 -72 222 -9 13 -14 25 -12 27 2
2 28 -11 58 -30 30 -19 56 -32 58 -30 10 9 -72 159 -121 222 -68 86 -76 105
-87 207 -6 64 -5 86 9 115 13 30 16 76 17 261 1 124 5 311 9 416 7 184 7 196
-20 325 -15 74 -33 148 -40 165 -20 48 -82 111 -121 124 -86 29 -155 -22 -288
-209 -120 -170 -239 -293 -171 -177 l26 44 -63 -33 c-35 -19 -102 -43 -149
-55 -113 -29 -177 -66 -236 -139 -26 -33 -51 -60 -55 -60 -8 -1 -48 116 -48
141 0 10 -4 18 -9 18 -10 0 -54 -63 -72 -102 -7 -16 -15 -28 -19 -28 -12 0
-39 70 -46 119 -4 28 -9 51 -12 51 -15 0 -102 -159 -102 -188 0 -23 -17 -4
-23 25 -6 32 -64 123 -78 123 -5 0 -9 -8 -9 -18 0 -25 -40 -142 -48 -141 -4 0
-29 27 -55 60 -59 73 -123 110 -236 139 -47 12 -114 36 -148 54 -56 30 -61 31
-51 12 6 -11 17 -29 26 -39 8 -9 12 -20 8 -25 -12 -11 -104 93 -181 204 -144
207 -219 260 -311 220z m60 -188 c15 -18 31 -39 37 -45 5 -7 28 -13 50 -13 22
0 49 -4 59 -10 17 -9 110 -133 110 -147 0 -3 -13 -3 -30 1 -40 7 -37 -3 10
-39 22 -16 69 -67 106 -113 37 -45 91 -104 121 -129 30 -26 61 -59 69 -75 14
-27 14 -29 -13 -39 -15 -5 -56 -13 -90 -16 -35 -3 -63 -9 -63 -12 0 -10 30
-53 58 -83 14 -15 23 -30 20 -33 -13 -14 -128 -6 -164 11 -39 18 -164 134
-164 152 0 5 21 -1 48 -14 26 -13 65 -26 87 -29 l40 -6 -44 20 c-71 34 -160
133 -209 236 -40 81 -82 149 -82 131 0 -4 7 -20 15 -35 8 -16 24 -82 35 -147
14 -80 30 -138 49 -176 25 -49 27 -59 15 -69 -26 -22 -60 5 -92 73 -17 35 -33
72 -36 82 -14 41 -18 3 -6 -56 24 -124 86 -201 210 -260 63 -30 80 -43 80 -62
0 -17 -98 -106 -117 -106 -17 0 -21 8 -26 58 -7 76 -33 138 -51 122 -21 -17
-114 -204 -122 -244 -25 -135 -82 93 -69 273 4 57 1 134 -10 226 -36 302 -36
341 5 477 26 86 60 128 105 128 25 0 39 -8 59 -32z m2360 1 c14 -17 36 -63 48
-102 28 -88 29 -232 4 -405 -10 -72 -16 -182 -16 -305 -1 -154 -4 -202 -18
-241 -21 -61 -37 -68 -46 -21 -8 41 -99 227 -120 244 -13 11 -18 6 -31 -26 -9
-21 -19 -64 -22 -95 -7 -70 -21 -74 -81 -22 -81 69 -78 92 14 134 95 43 167
118 193 205 12 37 21 84 20 104 0 34 -1 33 -24 -28 -23 -63 -67 -121 -92 -121
-25 0 -26 31 -3 77 12 25 31 96 42 161 10 65 27 134 38 155 17 35 17 37 1 23
-10 -9 -39 -59 -66 -112 -56 -113 -133 -201 -208 -239 l-52 -27 40 7 c34 6 63
17 139 53 15 8 -31 -54 -77 -100 -57 -59 -107 -81 -180 -80 -33 1 -62 3 -65 7
-3 3 6 18 20 33 28 30 58 73 58 83 0 3 -28 9 -63 12 -34 3 -75 11 -90 16 l-28
11 18 31 c10 17 41 50 69 74 28 25 81 82 118 127 37 46 84 97 106 113 47 36
50 46 10 39 -16 -4 -30 -4 -30 0 0 14 101 144 116 150 9 3 33 6 54 6 22 0 44
6 49 13 6 6 22 27 37 45 35 44 82 45 118 1z m-1543 -1274 c66 -71 96 -209 65
-303 -17 -49 -102 -179 -112 -169 -2 2 0 16 6 31 5 15 6 26 1 24 -17 -6 -94
-103 -103 -130 -15 -41 -27 -34 -17 10 5 20 9 39 9 42 0 3 -28 4 -63 2 -96 -6
-166 36 -202 120 -24 59 -18 65 20 21 41 -48 107 -83 156 -82 l34 1 -30 10
c-44 16 -93 55 -111 90 -15 29 -15 34 0 65 18 38 26 40 51 13 45 -49 80 -62
155 -54 64 6 70 5 71 -12 0 -16 2 -15 10 4 11 29 -3 97 -28 131 -51 67 -77 72
-243 48 -52 -8 -99 -12 -103 -10 -13 7 33 52 73 73 81 40 138 33 216 -26 l46
-35 -19 33 c-10 18 -45 59 -78 92 l-60 59 49 -7 c27 -3 64 -15 81 -25 l32 -19
-1 52 c-1 79 12 88 42 30 13 -27 37 -62 53 -79z m733 89 c4 -20 4 -48 1 -64
l-6 -28 40 20 c22 11 60 22 83 25 l43 6 -20 -23 c-11 -12 -40 -32 -65 -45 -38
-20 -104 -75 -89 -75 3 0 24 9 48 21 61 29 127 34 192 15 56 -16 119 -59 107
-71 -4 -4 -51 -1 -105 6 -115 16 -192 15 -222 0 -30 -17 -50 -62 -58 -132 -6
-60 -6 -61 15 -50 15 8 28 8 49 0 62 -24 149 13 173 73 18 45 17 44 45 18 30
-28 31 -60 6 -115 -21 -47 -48 -73 -87 -85 -27 -8 -28 -8 -5 -9 67 -2 163 82
177 156 10 52 27 27 20 -28 -10 -71 -31 -113 -77 -153 -47 -40 -86 -51 -160
-44 -27 3 -49 2 -49 -1 0 -3 4 -22 10 -40 14 -48 5 -50 -19 -4 -11 21 -39 58
-61 83 l-41 45 6 -35 7 -35 -31 35 c-16 19 -45 62 -63 95 -30 54 -33 68 -32
135 1 92 20 143 77 214 25 30 51 71 58 90 16 45 25 45 33 0z m147 -254 c27
-15 24 -34 -15 -74 -40 -43 -91 -49 -121 -16 -17 19 -17 21 1 47 l18 28 6 -24
c8 -36 36 -50 56 -29 21 21 11 57 -11 38 -8 -6 -19 -9 -24 -6 -16 10 -2 34 22
39 39 8 48 7 68 -3z m-1081 -8 c0 -4 -5 -13 -10 -18 -15 -15 -2 -42 23 -50 14
-4 25 -1 34 12 12 17 12 19 -4 22 -28 6 -40 21 -24 31 20 13 40 3 57 -30 12
-23 12 -32 2 -49 -27 -43 -121 -30 -148 19 -15 30 -12 59 8 64 29 8 62 7 62
-1z"/>
<path d="M2606 2737 c-12 -38 -17 -76 -14 -107 l5 -48 -43 -17 c-23 -9 -48
-23 -54 -31 -11 -12 -8 -12 21 0 63 25 86 27 109 8 l23 -18 -57 -32 c-31 -18
-56 -35 -56 -38 0 -3 19 5 43 19 65 38 86 42 102 20 21 -27 18 -62 -7 -84 -23
-20 -23 -20 -1 -10 18 9 24 7 36 -10 20 -28 11 -54 -37 -101 l-41 -40 39 31
c22 17 42 29 44 27 2 -2 -4 -44 -13 -93 -17 -90 -18 -213 -2 -148 4 17 22 74
40 128 28 84 34 95 45 80 17 -23 15 -49 -5 -81 -17 -26 -17 -26 0 -13 18 14
18 13 11 -25 -15 -78 -7 -136 32 -239 20 -55 39 -102 41 -104 11 -15 11 17 -2
95 -16 95 -20 214 -7 214 9 -1 68 -99 96 -160 12 -25 51 -105 89 -178 37 -74
67 -146 68 -161 l0 -26 10 25 c19 46 6 141 -29 212 -18 36 -32 68 -32 71 0 3
17 -1 38 -11 54 -24 212 -23 275 2 27 10 50 17 52 15 1 -2 -16 -36 -39 -76
-23 -39 -48 -98 -56 -130 -7 -32 -15 -65 -17 -73 -3 -8 8 8 24 35 16 28 52 80
80 118 33 42 59 90 72 130 20 64 87 187 103 187 4 0 9 -35 10 -77 3 -115 3
-124 -5 -168 -6 -38 -5 -37 24 22 27 55 31 76 36 178 5 103 8 114 22 102 13
-10 12 -7 -2 16 -18 27 -18 29 10 85 l27 56 24 -74 c15 -50 22 -93 20 -128 -4
-66 7 -67 21 -2 15 69 14 141 -3 181 -7 19 -17 49 -21 67 -7 32 -6 34 16 27
23 -6 23 -5 6 9 -23 18 -20 74 5 90 13 8 28 5 65 -14 26 -14 53 -26 58 -28 13
-5 -76 56 -90 62 -15 6 27 35 51 36 12 0 48 -13 80 -29 55 -28 57 -28 29 -5
-16 13 -49 31 -72 40 -42 16 -43 17 -37 56 4 25 0 63 -12 106 l-18 67 -12 -76
c-20 -127 -50 -166 -138 -178 -78 -11 -90 -27 -17 -23 l58 4 -6 -39 c-6 -38
-6 -38 -61 -43 -44 -4 -50 -6 -30 -12 14 -4 37 -8 53 -8 29 0 35 -16 14 -44
-10 -13 -18 -15 -37 -8 -46 17 -80 22 -80 13 0 -5 23 -14 50 -21 28 -7 50 -17
50 -24 0 -6 -11 -28 -25 -48 l-25 -37 -37 24 c-31 22 -63 32 -63 21 0 -2 18
-16 41 -31 40 -28 40 -28 20 -48 -19 -19 -21 -19 -45 -4 -38 26 -55 20 -23 -8
l27 -24 -22 -15 c-32 -20 -80 -33 -183 -51 -118 -20 -115 -20 -106 12 6 24 15
30 59 39 89 20 135 58 157 132 7 23 7 24 -19 6 -41 -26 -43 -9 -3 35 67 74 70
172 6 225 -35 30 -66 32 -154 11 -43 -11 -87 -13 -157 -9 -81 6 -101 4 -122
-10 -36 -23 -51 -85 -36 -146 13 -56 31 -75 80 -87 20 -5 35 -16 35 -24 0 -15
-28 -17 -57 -4 -14 5 -18 2 -18 -13 0 -46 88 -111 152 -112 31 0 58 -23 58
-49 0 -20 0 -20 -134 5 -71 14 -120 32 -166 63 -13 9 -12 13 8 26 33 24 27 38
-9 20 -24 -13 -34 -14 -45 -4 -22 18 -17 32 22 57 47 31 36 40 -16 13 -22 -11
-42 -21 -44 -21 -7 0 -46 67 -46 77 0 6 21 16 48 24 26 7 39 15 29 17 -9 2
-33 -2 -53 -8 -39 -13 -54 -4 -54 33 0 13 8 17 33 17 17 0 39 5 47 10 11 7 -2
10 -42 10 -55 0 -58 1 -58 24 0 13 -3 32 -7 42 -6 15 0 16 58 11 60 -6 62 -5
34 8 -16 8 -44 14 -62 15 -41 0 -98 48 -113 95 -6 18 -14 62 -18 97 l-7 63
-19 -58z m718 -267 c25 -12 46 -23 46 -26 0 -3 -28 -3 -63 1 -34 4 -88 2 -118
-3 -31 -6 -67 -8 -79 -5 -19 5 -13 10 36 29 74 29 119 29 178 4z m-191 -81
c29 -15 37 -28 37 -59 0 -24 -1 -24 -35 13 -18 20 -39 37 -45 37 -6 0 -8 5 -5
10 8 13 21 13 48 -1z m219 -39 c-30 -56 -42 -62 -42 -23 0 28 35 73 57 73 9 0
4 -16 -15 -50z m-215 -351 c60 -11 134 -9 255 6 l43 5 -53 -26 c-43 -21 -69
-26 -127 -26 -74 0 -197 32 -212 54 -4 7 0 9 10 5 10 -4 47 -12 84 -18z"/>
</g>
</svg>
