<?xml version="1.0" standalone="no"?>
<!DOCTYPE svg PUBLIC "-//W3C//DTD SVG 20010904//EN"
 "http://www.w3.org/TR/2001/REC-SVG-20010904/DTD/svg10.dtd">
<svg version="1.0" xmlns="http://www.w3.org/2000/svg"
 width="670.000000pt" height="644.000000pt" viewBox="0 0 670.000000 644.000000"
 preserveAspectRatio="xMidYMid meet">

<g transform="translate(0.000000,644.000000) scale(0.100000,-0.100000)"
fill="#000000" stroke="none">
<path d="M2863 6037 c18 -47 29 -147 25 -229 -4 -97 -55 -328 -71 -328 -33 0
-261 197 -357 308 -51 58 -104 102 -126 102 -5 0 -9 -178 -9 -405 0 -223 -3
-405 -7 -405 -4 0 -10 5 -13 10 -15 25 -25 5 -25 -52 -1 -97 -22 -131 -187
-302 -167 -172 -227 -260 -279 -409 -24 -72 -36 -93 -52 -95 -15 -2 -19 -8
-14 -25 5 -21 5 -21 -15 -4 -20 17 -20 17 -27 -79 -8 -101 -34 -189 -64 -212
-14 -11 -15 -18 -4 -58 7 -27 25 -58 42 -74 31 -29 45 -85 15 -60 -19 16 -18
16 -34 -40 -11 -40 -60 -92 -444 -477 -237 -238 -428 -436 -424 -439 4 -4 27
-3 52 3 25 6 45 7 45 3 0 -9 -130 -60 -152 -60 -41 0 -25 -56 27 -96 20 -15
42 -39 50 -53 15 -30 221 -161 348 -222 50 -24 117 -46 168 -56 46 -8 129 -29
183 -46 173 -52 265 -30 421 98 138 114 306 181 482 192 100 6 123 -1 123 -41
0 -38 -47 -119 -101 -174 -28 -28 -49 -57 -47 -63 2 -5 39 13 82 41 43 28 81
49 83 46 3 -3 -8 -21 -26 -41 -17 -20 -31 -46 -31 -59 0 -12 -25 -60 -55 -106
-68 -104 -70 -125 -8 -73 96 79 132 95 91 40 -32 -41 -65 -106 -90 -177 -16
-42 -21 -89 -25 -200 -3 -103 -1 -141 6 -130 6 8 11 23 11 32 0 38 43 129 82
172 22 26 42 45 45 43 2 -3 -10 -27 -27 -53 -52 -82 -74 -171 -67 -278 8 -132
57 -255 57 -143 1 78 56 172 128 218 130 82 170 -26 97 -254 -20 -60 -34 -117
-32 -126 3 -12 7 -8 15 11 26 63 139 158 187 158 19 0 19 1 -6 -73 -49 -144
-59 -274 -33 -428 30 -180 108 -365 212 -505 91 -123 124 -141 53 -30 -110
174 -171 363 -171 525 1 205 97 385 286 537 97 78 363 258 370 251 3 -3 -23
-31 -58 -63 -169 -156 -326 -323 -362 -383 -80 -138 -112 -306 -86 -459 6 -39
15 -72 18 -72 4 0 7 51 8 113 1 99 4 120 30 187 66 166 141 243 483 494 405
298 564 436 701 611 34 44 67 82 72 84 15 5 -47 -111 -108 -201 -31 -46 -86
-114 -122 -151 -107 -110 -422 -361 -592 -473 -76 -49 -228 -189 -217 -200 3
-3 41 19 84 49 43 30 139 89 213 132 290 168 550 352 721 512 288 269 472 503
601 763 43 85 78 152 78 149 0 -24 -50 -161 -91 -247 -50 -107 -171 -300 -243
-387 -23 -27 -114 -126 -203 -219 -90 -93 -163 -173 -163 -178 0 -18 23 -5 92
54 122 105 327 308 395 393 35 44 92 124 125 178 34 53 63 95 66 92 8 -8 -94
-206 -161 -312 -36 -56 -99 -147 -141 -203 -42 -55 -76 -104 -76 -108 0 -12
112 103 188 193 129 154 249 348 328 533 70 164 96 268 104 412 l6 125 23 -50
c13 -27 26 -69 29 -93 6 -58 19 -61 33 -10 8 30 9 87 4 188 -4 80 -8 165 -9
190 -1 35 -10 57 -38 98 -21 29 -35 52 -31 52 4 0 27 -19 50 -42 41 -40 43
-41 43 -18 0 60 -87 255 -146 327 -19 23 -34 43 -34 46 0 3 17 8 38 11 55 10
102 26 102 36 0 5 -15 13 -33 19 -45 15 -175 102 -212 141 l-30 33 38 -6 c20
-3 37 -2 37 2 0 5 28 18 63 31 89 32 275 128 324 167 23 18 51 47 63 63 l21
29 -57 -25 c-87 -38 -169 -54 -279 -53 -103 1 -167 10 -150 20 6 4 35 12 65
19 129 30 244 90 335 173 82 75 58 85 -56 23 -46 -24 -115 -54 -154 -66 -82
-25 -261 -39 -291 -22 -16 10 -12 11 26 12 55 0 65 7 68 43 1 18 -3 27 -13 27
-18 0 -20 20 -2 20 6 0 32 10 57 22 l45 21 -39 9 c-24 5 -61 4 -95 -2 -102
-19 -94 -3 15 29 40 12 77 28 84 36 11 13 -8 15 -159 15 -94 0 -171 4 -171 9
0 4 27 23 60 40 33 18 60 36 60 40 0 5 -46 0 -102 -10 -57 -10 -128 -18 -158
-18 l-55 1 70 14 c87 19 155 49 246 110 77 52 95 71 58 60 -34 -9 -307 -54
-351 -58 -54 -4 -56 8 -2 21 64 16 161 66 209 106 50 42 42 53 -16 21 -42 -23
-152 -57 -180 -55 -8 0 9 11 36 24 l50 24 -45 0 c-25 0 -83 -8 -130 -19 -46
-10 -86 -17 -88 -16 -2 2 32 23 75 46 83 44 145 97 170 144 16 31 12 30 -44
-12 -45 -33 -125 -62 -215 -77 -77 -12 -98 -6 -56 16 20 11 20 12 4 21 -13 7
-30 5 -59 -6 -58 -22 -166 -46 -202 -45 -21 0 -4 9 55 28 111 35 196 81 262
141 60 55 55 61 -24 26 -31 -14 -73 -28 -94 -32 l-39 -7 34 38 c29 34 61 91
61 111 0 4 -24 -16 -53 -43 -55 -52 -95 -79 -104 -69 -3 3 6 19 20 36 26 31
43 68 34 76 -3 3 -27 -10 -54 -29 -65 -47 -141 -84 -189 -93 l-39 -7 53 43
c45 36 82 80 68 80 -2 0 -35 -13 -72 -29 -74 -31 -172 -52 -160 -33 3 6 30 18
59 27 88 29 80 37 -30 29 -103 -7 -118 -3 -85 22 15 12 7 13 -55 14 -90 0
-161 25 -245 87 -85 62 -227 208 -352 361 -193 237 -266 299 -365 310 -37 4
-43 2 -38 -11z m98 -46 c78 -56 254 -262 329 -385 19 -32 37 -106 25 -106 -2
0 -22 35 -45 78 -79 146 -197 291 -296 361 -26 19 -45 31 -42 25 4 -5 27 -40
52 -77 25 -38 46 -76 45 -85 0 -14 -2 -14 -6 -2 -10 25 -75 121 -80 117 -2 -3
-6 -47 -8 -98 -2 -52 -15 -169 -29 -261 -27 -171 -30 -269 -17 -444 9 -120 27
-154 104 -190 38 -17 47 -25 34 -30 -24 -9 -21 -24 5 -24 16 0 19 -3 11 -11
-6 -6 -9 -19 -5 -28 12 -32 -131 106 -168 163 -54 81 -66 146 -50 261 7 49 14
95 17 102 3 7 1 13 -4 13 -6 0 -18 -28 -29 -62 -10 -35 -20 -56 -22 -47 -4 24
26 136 49 181 37 73 71 252 71 383 1 66 -2 139 -6 163 -5 24 -4 42 1 42 6 0
34 -17 64 -39z m-535 -228 c83 -108 86 -119 10 -38 -35 38 -66 68 -69 65 -5
-6 105 -451 133 -536 15 -44 20 -76 16 -99 -10 -54 -23 -50 -23 8 0 28 -11 90
-26 137 -14 47 -40 150 -58 230 -18 80 -38 152 -46 161 -15 18 -19 149 -4 149
5 0 35 -35 67 -77z m-58 -265 c-2 -121 5 -160 17 -89 4 23 10 41 14 41 12 0
39 -193 29 -204 -4 -6 -8 -27 -8 -48 0 -37 -13 -51 -23 -25 -3 6 -6 -3 -6 -20
-1 -36 -15 -44 -26 -15 -19 48 -24 144 -18 331 4 141 9 197 15 176 5 -16 8
-83 6 -147z m756 -35 c9 41 26 50 26 14 0 -13 9 -59 20 -102 15 -58 17 -81 9
-86 -9 -5 -7 -18 5 -49 12 -31 13 -41 4 -38 -60 23 -70 18 -48 -23 18 -33 -19
-23 -56 16 -41 44 -64 117 -64 203 0 65 17 142 31 142 4 0 7 -29 8 -65 0 -57
16 -145 25 -145 2 0 1 30 -1 68 -3 41 0 84 8 112 l14 45 5 -65 c5 -63 6 -64
14 -27z m256 -23 c-1 -8 -10 3 -20 24 -25 51 -25 59 0 21 11 -16 20 -37 20
-45z m-160 -16 c0 -27 -4 -43 -10 -39 -17 11 -11 85 7 85 2 0 3 -21 3 -46z
m-257 -240 c4 -4 7 17 8 47 0 30 4 63 8 74 7 16 12 7 26 -42 18 -63 79 -173
96 -173 5 0 9 -5 9 -11 0 -7 -11 -9 -31 -5 -27 5 -30 4 -24 -14 8 -24 3 -25
-34 -5 -39 20 -78 69 -91 113 -14 51 -13 178 2 227 12 38 13 33 18 -82 3 -67
8 -125 13 -129z m372 117 c71 -115 101 -184 111 -260 7 -55 -2 -141 -16 -141
-5 0 -12 36 -16 80 -3 44 -11 83 -15 86 -5 3 -9 -34 -9 -82 0 -48 -2 -85 -4
-83 -3 2 -12 49 -22 104 -23 137 -63 265 -76 242 -14 -26 -24 -13 -38 52 -14
65 -6 149 12 121 5 -8 38 -62 73 -119z m162 -157 c34 -65 67 -119 74 -119 15
0 57 -104 65 -160 5 -40 5 -40 -25 20 l-29 60 -1 -62 c-1 -68 -11 -78 -37 -38
-20 30 -34 32 -34 5 0 -26 -16 -26 -30 1 -8 14 -9 57 -4 134 7 115 -1 200 -16
176 -10 -17 -19 -3 -35 60 -22 82 4 55 72 -77z m169 41 c14 -30 24 -61 21 -68
-3 -11 -36 53 -52 102 -13 41 7 20 31 -34z m-996 17 c0 -15 -112 -146 -229
-268 -64 -66 -138 -151 -165 -190 -53 -75 -81 -107 -51 -59 55 91 207 283 296
375 56 58 108 115 117 128 14 22 32 30 32 14z m1080 -111 c-1 -10 -6 -7 -15 9
-19 33 -18 50 0 26 8 -11 15 -27 15 -35z m-788 -26 c25 -24 40 -47 34 -49 -6
-3 3 -16 19 -30 l30 -26 -32 0 c-23 0 -38 8 -57 31 -14 17 -26 34 -26 37 0 4
-4 24 -9 45 -5 20 -8 37 -6 37 1 0 22 -20 47 -45z m288 -71 c0 -52 -4 -94 -9
-94 -14 0 -50 49 -57 77 -4 12 -4 34 0 46 8 32 45 79 57 72 5 -4 9 -49 9 -101z
m-440 -89 c41 -21 38 -26 -10 -19 -48 8 -50 2 -7 -25 31 -20 32 -21 7 -22 -21
-1 -19 -2 10 -11 46 -13 61 -28 30 -28 -24 -1 -24 -1 -6 -15 10 -8 24 -16 30
-19 6 -3 -2 -16 -19 -31 l-30 -27 35 7 c19 3 53 9 75 11 l40 5 -50 -21 c-27
-12 -73 -28 -101 -35 -70 -18 -214 -30 -214 -18 0 5 29 31 65 57 36 26 65 49
65 51 0 26 -188 -114 -211 -158 -9 -16 -6 -16 28 3 30 16 57 20 138 21 55 0
123 4 150 9 28 4 52 6 54 4 6 -5 -96 -100 -140 -130 -21 -14 -60 -28 -95 -33
l-59 -9 52 -1 c66 -1 95 10 166 66 94 73 210 134 307 159 30 8 99 14 154 14
l99 0 -59 -38 c-32 -22 -68 -49 -79 -62 -11 -12 -56 -39 -100 -60 -95 -44
-148 -96 -199 -198 -49 -97 -134 -162 -211 -161 -27 0 -28 1 -11 12 10 7 28
20 40 29 20 16 19 16 -26 3 -51 -15 -62 -7 -25 18 20 14 16 15 -59 10 -86 -6
-194 3 -194 16 0 4 12 13 26 20 52 24 14 22 -82 -4 -62 -17 -119 -40 -151 -61
-71 -46 -135 -130 -164 -214 -13 -38 -27 -66 -31 -64 -13 9 -9 80 8 131 32 96
96 152 227 198 42 15 77 29 77 31 0 10 -103 -11 -161 -32 -115 -43 -171 -122
-171 -245 0 -77 8 -122 29 -162 18 -36 8 -51 -22 -31 -36 24 -58 92 -53 166 7
107 71 208 172 271 103 63 141 90 129 94 -7 3 -52 -16 -101 -41 -48 -25 -91
-46 -95 -46 -9 0 16 40 69 110 69 91 285 302 357 350 38 24 63 46 57 48 -23 8
-137 -60 -199 -118 -35 -33 -66 -58 -68 -56 -6 6 29 78 69 137 48 73 168 182
168 153 0 -4 -38 -47 -85 -96 -47 -49 -85 -94 -85 -99 0 -6 39 25 86 68 47 43
90 77 95 75 11 -3 74 40 129 86 l35 30 33 -29 c18 -16 46 -36 62 -44z m1158
-198 c-90 -51 -172 -120 -231 -194 -30 -38 -71 -84 -92 -102 -40 -35 -187
-111 -214 -111 -9 0 8 22 39 50 96 86 37 60 -110 -50 -46 -34 -101 -71 -123
-81 -53 -28 -187 -72 -194 -65 -4 3 -1 6 5 6 17 0 177 137 262 225 83 86 116
105 187 106 26 0 66 6 88 13 37 12 33 13 -52 8 -50 -3 -99 -2 -109 2 -15 6
-15 9 7 32 34 37 66 51 153 69 42 9 152 40 244 70 92 30 174 54 182 54 8 1
-10 -14 -42 -32z m255 16 c-7 -2 -19 -2 -25 0 -7 3 -2 5 12 5 14 0 19 -2 13
-5z m279 -35 c-11 -18 -42 -48 -68 -67 l-49 -33 -100 6 c-55 4 -104 12 -110
18 -7 7 3 9 33 5 23 -3 42 -4 42 -2 0 1 -38 17 -85 34 -47 18 -85 37 -85 42 0
6 8 8 18 6 146 -40 292 -39 372 2 50 26 54 25 32 -11z m-962 12 c0 -5 -4 -10
-8 -10 -4 0 -28 -20 -53 -44 -38 -37 -52 -44 -97 -48 -28 -3 -74 -17 -102 -31
-60 -31 -64 -18 -11 33 62 59 133 89 264 109 4 0 7 -3 7 -9z m227 -1 c-25 -15
-120 -29 -131 -19 -4 5 14 11 40 15 27 3 56 8 64 9 34 8 45 6 27 -5z m-1665
-134 c-38 -69 -83 -159 -98 -200 -16 -41 -32 -75 -36 -75 -26 0 6 149 51 238
30 59 78 123 67 90 -9 -29 8 -20 28 15 11 17 26 40 34 50 35 40 20 0 -46 -118z
m49 9 c-10 -52 -37 -124 -47 -124 -10 0 8 84 28 133 12 26 22 46 24 44 2 -2 0
-26 -5 -53z m1269 8 c0 -22 -80 -98 -161 -152 -50 -33 -95 -60 -100 -60 -19 0
55 122 94 155 53 46 167 84 167 57z m1056 -46 c43 -13 111 -37 149 -54 39 -17
92 -33 119 -37 72 -11 36 -24 -72 -26 -51 -1 -92 -3 -92 -5 0 -2 21 -15 48
-28 43 -23 44 -25 19 -26 -32 0 -238 43 -282 60 -39 15 -117 79 -110 91 10 15
74 10 188 -15 110 -24 136 -17 34 10 -30 8 -75 23 -99 34 -42 19 -42 20 -12
20 16 0 66 -11 110 -24z m-520 -32 c-8 -59 -38 -108 -75 -124 -31 -12 -136 1
-155 20 -6 6 21 23 75 49 46 21 98 52 114 69 17 16 34 30 39 31 5 1 6 -20 2
-45z m-1990 -56 c-14 -46 -26 -92 -26 -101 0 -9 -5 -17 -10 -17 -6 0 -8 10 -6
23 3 12 8 40 11 62 8 46 43 131 51 123 3 -3 -6 -44 -20 -90z m1184 37 c0 -53
-38 -142 -79 -185 -39 -41 -176 -112 -241 -125 -32 -6 -33 -6 -15 7 11 8 45
25 76 37 63 25 88 47 117 106 38 75 33 90 -6 21 -34 -58 -72 -102 -72 -81 0
13 61 138 81 166 27 38 96 89 121 89 14 0 18 -8 18 -35z m1082 -99 c102 -20
189 -46 183 -56 -15 -24 -266 -117 -429 -159 l-181 -46 -205 0 c-113 0 -214 4
-225 8 -15 7 11 19 117 53 75 24 172 50 215 58 51 9 66 14 43 15 -59 2 -200
-18 -310 -43 l-105 -24 40 35 c59 52 131 82 226 94 99 12 160 7 329 -28 148
-30 293 -29 370 3 l45 19 -87 7 c-88 6 -198 44 -198 67 0 15 85 14 172 -3z
m491 -96 c116 0 117 -7 11 -61 -77 -39 -174 -50 -250 -29 -75 21 -59 28 54 23
77 -3 103 -2 92 6 -8 6 -25 11 -37 11 -27 0 -103 29 -103 39 0 18 19 23 74 17
32 -3 104 -6 159 -6z m-2856 -127 c-2 -16 -4 -3 -4 27 0 30 2 43 4 28 2 -16 2
-40 0 -55z m-37 25 c0 -13 3 -48 6 -78 5 -43 4 -53 -6 -43 -16 15 -27 143 -11
143 6 0 11 -10 11 -22z m599 16 c39 -8 39 -18 -1 -35 -43 -18 -143 -113 -219
-209 -34 -44 -65 -77 -68 -74 -10 10 -10 149 0 181 13 41 88 107 142 127 46
16 97 19 146 10z m2356 -49 c67 -27 188 -162 209 -230 3 -12 -39 23 -94 76
-55 54 -122 112 -150 130 -27 18 -50 34 -50 36 0 9 55 1 85 -12z m-547 -21
c72 -24 194 -96 267 -158 27 -24 23 -23 -49 10 -145 64 -214 76 -459 79 -120
1 -220 5 -223 8 -5 5 147 57 221 75 75 19 162 14 243 -14z m-2276 -79 c-6
-122 1 -155 44 -211 38 -49 39 -60 4 -49 -60 19 -105 169 -81 267 12 48 28 88
34 88 2 0 1 -43 -1 -95z m2635 86 c21 -6 33 -6 35 1 6 16 124 -48 173 -93 24
-22 42 -46 39 -53 -3 -8 9 -35 26 -62 50 -79 71 -163 77 -301 5 -103 2 -137
-16 -215 -23 -100 -47 -155 -37 -83 23 147 15 302 -18 378 -14 31 -14 31 -9
-23 3 -30 3 -53 0 -50 -3 3 -19 43 -36 89 -40 110 -72 163 -145 239 -33 35
-61 70 -62 80 -2 9 -25 36 -51 59 -51 45 -45 54 24 34z m-1898 -37 c58 -19
110 -39 114 -43 5 -5 -17 -19 -49 -31 -72 -27 -224 -63 -232 -56 -11 11 41 55
90 76 27 12 48 24 45 27 -10 9 -173 -17 -232 -37 -31 -11 -88 -35 -126 -55
-84 -42 -81 -29 10 58 114 109 197 123 380 61z m236 -5 c14 -14 -22 -11 -59 5
-53 22 -52 37 1 19 27 -9 52 -20 58 -24z m-1135 -63 c0 -38 -2 -67 -5 -64 -10
10 -24 116 -18 138 10 39 23 -1 23 -74z m1423 20 c88 -35 168 -56 218 -56 27
0 29 -2 23 -27 -10 -43 -11 -43 -77 -43 -51 -1 -59 -3 -42 -12 10 -6 51 -13
90 -16 55 -3 83 1 130 18 45 16 90 23 175 26 l115 4 -43 -21 c-23 -11 -81 -28
-128 -39 -47 -10 -88 -21 -92 -24 -3 -3 28 -6 69 -7 80 0 147 -17 75 -18 -48
-1 -38 -14 25 -30 43 -12 147 -71 124 -71 -5 0 -45 7 -88 15 -105 20 -123 18
-58 -5 55 -20 68 -28 114 -69 41 -38 36 -52 -14 -34 -49 16 -63 9 -28 -14 13
-9 58 -49 99 -89 75 -72 140 -112 248 -150 56 -19 67 -34 26 -34 -21 0 -220
42 -309 66 -20 5 -20 5 -1 -10 11 -9 17 -19 13 -22 -4 -4 -32 9 -62 30 -59 39
-73 30 -29 -17 14 -16 23 -31 19 -35 -14 -14 -116 52 -160 103 -46 55 -129
105 -172 105 -36 0 -27 13 25 35 l47 20 -80 6 c-44 3 -94 13 -110 21 -28 15
-26 15 43 10 50 -3 72 -1 72 7 0 6 -18 11 -42 12 -24 0 -52 4 -63 9 -17 7 -16
9 10 9 35 1 73 21 41 21 -23 0 -103 50 -136 85 l-23 25 21 0 c30 0 28 11 -9
46 -18 16 -56 61 -85 101 -30 39 -58 75 -64 78 -13 8 -13 25 -1 25 6 0 48 -15
94 -34z m-1459 -98 c18 -68 29 -158 19 -158 -9 0 -53 135 -53 162 0 18 10 48
16 48 2 0 10 -24 18 -52z m1166 10 c-14 -6 -50 -23 -80 -37 -30 -14 -59 -27
-65 -30 -5 -2 -4 3 3 12 20 24 112 67 141 66 l26 0 -25 -11z m-349 -74 c-12
-26 -19 -49 -17 -51 2 -3 16 3 30 12 30 20 33 10 10 -23 -26 -37 -8 -38 42 -3
25 18 48 31 51 27 8 -8 -42 -71 -82 -101 -48 -38 -127 -65 -183 -64 l-47 1 35
14 c35 14 34 14 -33 10 l-67 -4 100 108 c79 85 109 110 138 117 20 5 39 9 40
7 2 -1 -6 -24 -17 -50z m-240 36 c34 -19 20 -90 -19 -90 -10 0 -12 8 -7 30 6
29 5 30 -26 28 -41 -4 -49 17 -12 30 37 14 41 14 64 2z m1799 -26 c33 -14 65
-33 72 -41 10 -12 4 -12 -27 2 -22 9 -69 28 -105 42 -36 13 -67 27 -70 30 -12
14 75 -8 130 -33z m-2043 4 c-3 -8 -6 -5 -6 6 -1 11 2 17 5 13 3 -3 4 -12 1
-19z m2664 -80 c34 -53 69 -155 68 -196 0 -21 -4 -16 -18 23 -22 61 -50 117
-102 201 -21 35 -39 67 -39 71 0 14 62 -53 91 -99z m-3031 62 c0 -10 5 -22 10
-25 12 -8 13 -45 1 -45 -11 0 -31 54 -31 82 0 11 5 16 10 13 6 -3 10 -15 10
-25z m1116 -1 c-16 -12 -39 -34 -52 -48 -17 -19 -24 -21 -24 -10 0 16 42 59
75 77 31 16 31 5 1 -19z m-436 0 c0 -29 -62 -89 -93 -89 -13 0 -29 6 -36 13
-8 11 -5 13 19 9 38 -5 73 17 90 57 15 36 20 39 20 10z m650 1 c-8 -5 -19 -10
-25 -10 -5 0 -3 5 5 10 8 5 20 10 25 10 6 0 3 -5 -5 -10z m1025 -19 c107 -51
206 -149 229 -228 7 -21 5 -21 -46 7 -29 16 -88 41 -130 56 -43 14 -88 34
-100 45 -17 14 -18 17 -5 13 34 -12 16 16 -27 41 -24 14 -50 32 -56 40 -11 13
-7 15 19 15 39 0 81 -21 140 -69 36 -29 42 -32 32 -13 -7 13 -40 43 -74 68
-75 56 -74 54 -56 54 8 0 41 -13 74 -29z m-2165 3 c0 -27 40 -83 78 -109 l35
-24 -27 -7 c-29 -7 -69 14 -86 46 -16 31 -25 110 -11 110 6 0 11 -7 11 -16z
m996 -26 c-43 -50 -45 -60 -8 -48 66 20 85 22 78 5 -5 -13 0 -15 32 -9 20 3
39 6 42 6 80 0 95 -15 28 -27 l-43 -7 50 -15 c67 -20 79 -33 30 -33 -54 0 -77
-15 -38 -24 43 -11 111 -47 117 -63 3 -8 2 -11 -4 -8 -16 10 -140 22 -140 13
0 -4 6 -8 13 -8 21 0 118 -49 151 -76 56 -48 49 -54 -24 -23 -90 38 -127 34
-45 -5 l60 -29 -45 -12 c-106 -29 -144 -35 -213 -36 l-72 -1 40 -19 c49 -23
148 -25 198 -4 49 20 113 19 163 -4 54 -25 64 -41 26 -41 -46 0 -92 -11 -86
-21 3 -5 16 -9 30 -9 36 0 81 -26 141 -81 29 -26 69 -53 89 -59 32 -11 34 -14
19 -22 -9 -6 -35 -7 -56 -4 -22 3 -39 2 -39 -3 0 -16 85 -51 123 -51 42 0 49
-16 11 -26 -16 -4 -53 3 -100 18 -74 24 -89 21 -57 -14 15 -17 14 -18 -16 -18
-19 0 -30 -4 -26 -10 26 -41 -82 36 -121 87 -28 37 -28 37 -34 13 -6 -24 -7
-23 -27 16 -12 22 -29 46 -37 53 -9 8 -16 18 -16 23 0 14 51 0 73 -19 50 -45
12 60 -39 108 -29 27 -42 19 -20 -13 26 -37 19 -40 -35 -12 -40 20 -50 22 -46
10 8 -20 -14 -21 -79 -1 -70 21 -74 18 -30 -20 39 -34 39 -35 13 -35 -14 0
-50 9 -78 20 -82 33 -90 20 -18 -27 99 -64 148 -76 226 -54 29 8 35 6 52 -15
11 -14 30 -55 42 -92 12 -37 37 -91 55 -120 19 -29 34 -54 34 -57 0 -12 -40
12 -78 49 -42 39 -43 40 -32 12 16 -43 4 -43 -36 0 l-36 39 6 -38 c4 -21 10
-45 13 -53 10 -26 -15 -14 -67 33 l-52 46 17 -39 c9 -21 25 -54 35 -71 18 -31
18 -33 2 -33 -10 0 -39 13 -65 30 -35 22 -57 48 -89 104 -44 78 -63 96 -52 50
8 -31 6 -30 -67 22 -42 31 -100 50 -209 72 l-45 9 35 10 c35 11 35 11 -21 12
-102 2 -222 -30 -274 -74 -20 -16 -20 -16 3 -10 42 12 109 7 143 -10 19 -10
60 -43 93 -74 42 -40 56 -50 51 -33 -4 14 -1 28 9 37 14 14 24 8 98 -60 46
-42 111 -97 146 -123 40 -30 57 -48 47 -50 -31 -7 -86 21 -121 61 -35 40 -40
35 -19 -17 16 -39 -59 16 -171 125 -61 60 -123 113 -138 119 -39 15 -111 12
-153 -5 -47 -20 -37 -29 17 -15 85 23 133 -1 275 -139 61 -59 127 -121 149
-139 21 -18 36 -36 33 -38 -3 -3 -24 0 -47 6 -61 16 -76 -1 -34 -39 17 -16 38
-31 45 -33 8 -3 11 -8 8 -12 -4 -4 -42 2 -85 14 -105 27 -130 26 -138 -4 -6
-23 -9 -24 -123 -28 -87 -3 -128 -9 -158 -23 l-40 -18 35 -6 c35 -7 35 -7 -32
-29 -84 -29 -166 -82 -257 -165 -87 -81 -155 -109 -245 -105 -56 3 -59 4 -34
15 36 16 49 38 17 29 -13 -3 -55 -9 -94 -11 -61 -4 -66 -3 -35 6 162 51 202
68 298 126 59 36 129 78 157 92 64 34 135 104 162 161 35 75 91 110 174 110
21 0 41 5 44 10 10 16 -101 12 -140 -4 -32 -14 -35 -14 -35 3 0 22 36 55 75
69 25 9 26 11 8 11 -12 1 -33 -3 -47 -9 -34 -13 -33 3 2 28 61 43 108 40 195
-12 64 -39 74 -33 22 13 -45 39 -131 65 -188 56 -106 -18 -184 -87 -278 -247
-100 -168 -177 -239 -325 -301 -117 -49 -228 -70 -339 -64 -117 6 -153 16
-220 58 -45 29 -48 32 -29 40 15 5 36 0 70 -17 26 -13 59 -24 73 -24 22 1 20
4 -21 25 -26 14 -49 29 -52 33 -3 5 29 7 72 5 48 -2 70 0 57 5 -17 8 -13 11
25 25 l45 16 -90 -5 c-79 -5 -88 -4 -73 9 10 8 18 25 18 39 0 30 47 97 87 125
15 11 48 29 73 40 50 23 134 82 127 89 -3 3 -44 -16 -91 -42 -99 -53 -140 -58
-206 -24 -52 26 -49 30 78 107 120 72 125 74 85 31 -18 -19 -33 -37 -33 -41 0
-17 21 -3 81 50 36 32 92 69 129 85 139 61 207 108 251 172 56 83 37 9 -24
-92 -18 -29 -53 -79 -79 -110 -25 -31 -44 -59 -42 -61 9 -10 101 90 215 237
66 83 122 152 125 152 5 0 -21 -42 -53 -86 -48 -64 -6 -40 76 44 116 119 151
135 351 161 171 22 197 30 300 96 98 64 166 94 232 101 63 7 69 24 10 24 -34
0 -140 -26 -184 -45 -37 -15 -16 16 42 62 45 36 55 49 43 54 -25 9 164 159
200 159 5 0 -8 -19 -27 -42z m-1064 -110 c-6 -46 -14 -91 -17 -100 -11 -29 8
-20 33 15 23 33 31 22 11 -15 -8 -16 -8 -22 2 -29 9 -5 2 -14 -25 -29 -42 -25
-43 -36 -1 -20 43 16 41 4 -4 -26 -23 -14 -41 -29 -41 -32 0 -2 18 -2 40 2 22
3 40 3 40 0 0 -10 -47 -73 -84 -112 -43 -46 -72 -60 -168 -78 -133 -24 -275
-75 -293 -104 -10 -16 12 -12 53 9 21 11 56 23 77 27 l40 7 -38 -42 c-21 -24
-36 -45 -33 -48 3 -3 24 10 48 29 24 19 57 42 73 51 42 23 164 67 186 67 17 0
17 -2 -3 -36 -26 -44 -114 -115 -185 -150 -28 -14 -112 -40 -185 -58 -90 -23
-167 -49 -238 -84 -58 -27 -106 -49 -108 -47 -2 1 97 99 220 216 515 495 565
552 584 669 6 39 8 42 17 23 6 -15 6 -51 -1 -105z m392 77 c24 -32 25 -35 8
-35 -17 0 -42 36 -42 60 0 16 6 12 34 -25z m2207 -31 c29 -31 66 -53 54 -32
-5 7 -15 21 -23 31 -8 9 -13 20 -10 22 10 11 103 -102 130 -157 35 -71 47
-126 48 -208 0 -58 -20 -164 -34 -177 -3 -3 -5 39 -4 93 1 55 -3 115 -8 134
-8 31 -10 26 -15 -50 -4 -63 -8 -79 -14 -61 -4 13 -30 69 -57 123 -26 55 -48
102 -48 106 0 4 11 -6 25 -23 14 -17 24 -24 25 -16 0 24 -59 123 -99 164 l-36
38 30 -7 c29 -7 30 -7 13 13 -36 40 -14 46 23 7z m-2097 -108 c55 -13 102 -28
104 -35 4 -12 -72 -50 -102 -51 -32 0 -91 21 -117 42 l-24 20 53 -7 c28 -3 52
-3 52 0 0 3 -20 15 -45 26 -45 20 -56 30 -32 28 6 0 57 -10 111 -23z m-179
-41 c14 0 115 -68 115 -77 0 -5 -49 -8 -110 -8 -120 0 -120 0 -99 59 9 24 14
29 20 19 7 -10 11 -10 25 4 10 9 22 14 28 10 6 -3 16 -7 21 -7z m2098 -57 c32
-17 10 -21 -38 -8 -52 14 -62 35 -12 25 17 -4 40 -12 50 -17z m-12 -80 c31
-16 83 -53 114 -81 32 -28 53 -42 47 -32 -14 27 -78 86 -127 119 -56 37 -18
34 59 -5 74 -37 152 -110 167 -157 6 -19 9 -51 6 -72 -5 -40 -48 -133 -75
-164 -16 -17 -17 -15 -23 52 -7 92 -29 123 -169 237 -60 50 -110 93 -110 97 0
4 14 3 30 -2 37 -11 38 -3 3 28 l-28 23 25 -7 c14 -3 50 -20 81 -36z m-717 16
c37 -13 70 -39 147 -116 55 -55 98 -102 95 -105 -9 -9 -114 67 -141 103 -30
40 -116 100 -157 109 -16 4 -25 11 -22 16 8 13 24 11 78 -7z m-1089 -14 c-3
-5 -14 -10 -23 -9 -14 0 -13 2 3 9 27 11 27 11 20 0z m1699 -49 c19 -21 19
-21 -1 -21 -27 0 -87 42 -91 63 -3 17 -1 17 35 -1 21 -11 47 -29 57 -41z
m-1759 29 c-12 -4 -61 -11 -110 -15 -111 -8 -209 -35 -261 -73 -58 -42 -71
-48 -47 -21 32 35 125 89 180 104 52 14 272 19 238 5z m1195 -70 c8 -5 11 -10
5 -10 -5 0 -17 5 -25 10 -8 5 -10 10 -5 10 6 0 17 -5 25 -10z m-1704 -47 c-8
-15 -15 -25 -16 -21 0 12 23 58 27 54 3 -2 -2 -17 -11 -33z m1682 -41 c30 -22
58 -69 48 -79 -23 -23 -168 8 -196 42 -8 10 4 8 39 -6 85 -32 95 -26 46 28
-24 26 -41 51 -39 55 6 9 69 -15 102 -40z m107 -31 c27 -28 44 -51 38 -51 -14
0 -123 99 -123 111 0 16 32 -7 85 -60z m419 -28 c4 -8 1 -33 -5 -55 -11 -44
-5 -65 9 -27 5 13 12 31 15 39 4 11 6 10 7 -5 1 -18 4 -16 25 10 24 29 25 29
25 7 0 -84 -111 -152 -247 -152 -49 0 -54 2 -48 18 4 9 11 32 15 50 13 51 23
53 16 2 -6 -43 -6 -44 8 -20 8 14 18 42 21 64 8 46 24 31 25 -24 1 -44 15 -23
25 38 8 52 25 45 25 -11 0 -37 2 -40 15 -26 9 8 18 33 21 55 3 21 7 45 9 51 5
16 32 6 39 -14z m663 -10 c-3 -10 -5 -4 -5 12 0 17 2 24 5 18 2 -7 2 -21 0
-30z m-27 -183 c-15 -85 -24 -204 -31 -380 -8 -234 -28 -407 -41 -370 -4 8
-11 42 -17 74 -11 62 -43 125 -90 179 -40 45 -62 92 -82 172 l-18 70 2 -115 2
-114 -30 -9 c-77 -22 -182 -84 -248 -146 -86 -82 -124 -136 -152 -220 l-22
-65 -14 40 c-19 52 -19 280 0 354 30 123 114 262 212 355 41 39 43 35 7 -17
-20 -29 -22 -38 -9 -38 5 0 30 31 57 70 26 38 49 68 52 66 5 -6 -11 -35 -89
-162 -38 -61 -69 -114 -69 -117 0 -21 23 1 71 68 29 41 55 75 57 75 6 0 -10
-64 -22 -84 -6 -11 -42 -66 -79 -124 -38 -57 -66 -107 -63 -110 3 -3 7 -3 9
-1 1 2 43 49 93 104 123 137 196 223 290 338 l79 99 5 -90 c6 -103 20 -135 20
-46 0 32 6 82 14 109 15 56 45 130 50 124 1 -2 -3 -51 -10 -109 -20 -168 -16
-201 11 -85 33 147 70 270 73 248 2 -11 -6 -76 -18 -143z m-450 84 c2 -3 -3
-19 -13 -36 -23 -39 -17 -44 18 -16 l28 22 -7 -30 c-4 -16 -14 -37 -23 -46
-18 -20 -88 -44 -155 -53 -25 -3 -91 -22 -145 -41 -82 -29 -91 -34 -56 -31 37
2 42 0 37 -15 -7 -22 -1 -22 36 -3 43 22 37 4 -15 -44 -41 -38 -45 -46 -20
-41 7 1 7 -2 0 -8 -6 -6 -78 -7 -190 -3 -169 6 -184 8 -242 35 -35 16 -63 32
-63 36 0 4 37 10 83 13 82 6 180 33 225 63 31 20 39 11 18 -22 -30 -45 -9 -39
36 11 54 59 102 87 198 115 93 28 148 55 173 87 15 19 25 23 46 18 14 -4 28
-9 31 -11z m-1060 -14 c0 -5 -4 -10 -10 -10 -5 0 -10 5 -10 10 0 6 5 10 10 10
6 0 10 -4 10 -10z m-499 -79 c69 -35 99 -58 62 -46 -14 4 -23 2 -23 -4 0 -14
93 -87 144 -113 23 -12 35 -23 29 -25 -27 -9 -83 20 -129 67 -26 27 -50 48
-51 46 -2 -2 1 -16 7 -31 6 -15 8 -30 6 -32 -9 -10 -115 69 -148 110 -57 70
-57 71 -6 65 25 -3 74 -20 109 -37z m580 -37 c22 -25 22 -26 3 -16 -12 6 -24
18 -28 27 -8 21 -3 19 25 -11z m459 1 c-6 -8 -9 -19 -5 -24 8 -14 -83 -58
-157 -76 -79 -19 -75 -19 -81 7 -8 31 7 38 85 38 62 0 100 14 61 22 -14 3 68
39 106 47 2 1 -2 -6 -9 -14z m314 -192 c-31 -37 -59 -70 -62 -73 -2 -3 3 10
13 29 18 36 95 124 102 117 3 -2 -21 -35 -53 -73z m-626 10 c26 -11 32 -17 20
-20 -9 -2 -30 3 -47 12 -55 28 -33 35 27 8z m-166 -83 c21 0 5 -19 -19 -22
l-28 -4 29 -14 c24 -12 34 -12 72 2 41 14 45 14 53 -1 5 -9 5 -25 0 -36 -13
-32 -10 -43 11 -50 38 -12 9 -25 -57 -25 -74 0 -139 24 -161 61 -19 29 -6 37
21 12 50 -47 127 -79 127 -55 0 5 -20 23 -44 40 -46 34 -76 83 -76 127 l0 27
32 -31 c17 -17 35 -31 40 -31z m286 9 c28 -6 52 -14 52 -18 0 -19 -29 -42 -65
-51 -37 -9 -36 -9 18 -5 31 3 57 3 57 0 0 -4 -17 -13 -37 -21 -28 -12 -33 -18
-22 -25 9 -6 -1 -9 -33 -9 -39 0 -54 6 -82 30 -35 31 -63 91 -51 110 7 11 67
7 163 -11z m-2703 -110 c11 -16 2 -17 -30 -3 l-30 13 27 1 c15 0 30 -5 33 -11z
m2960 -18 c-10 -32 -69 -72 -115 -78 -50 -7 -51 6 -2 30 20 10 55 31 77 46 45
31 50 32 40 2z m-547 -48 c28 -3 52 -9 52 -12 0 -3 -20 -18 -43 -33 -23 -15
-52 -35 -64 -44 -23 -16 -23 -16 -23 22 0 22 -3 50 -7 63 -5 21 -4 23 13 17
10 -4 43 -10 72 -13z m568 1 c-4 -12 -1 -14 14 -9 23 7 23 9 11 -33 -11 -38 5
-45 19 -7 13 35 30 31 30 -7 -1 -83 -61 -254 -109 -308 -19 -21 -22 -22 -16
-5 39 112 25 186 -53 267 -20 21 -34 39 -31 41 2 2 25 11 50 21 26 9 55 26 64
36 22 24 29 25 21 4z m-344 -146 c-36 -64 -47 -98 -33 -98 6 0 11 5 11 12 0
35 93 118 134 118 14 0 8 -8 -22 -29 -46 -34 -56 -47 -47 -62 5 -7 15 -5 31 5
34 23 41 20 15 -7 -18 -20 -19 -26 -8 -36 20 -16 41 -123 33 -172 -4 -22 -18
-64 -33 -92 -27 -55 -112 -171 -119 -164 -3 2 16 40 41 83 47 83 85 188 84
233 0 18 -4 12 -13 -22 -7 -27 -21 -56 -30 -65 -15 -15 -16 -12 -16 40 0 30 7
75 15 98 18 50 18 50 7 50 -16 0 -42 -73 -56 -153 -7 -43 -16 -80 -19 -83 -3
-3 -16 14 -29 38 -19 36 -23 58 -23 138 0 102 12 137 63 193 40 43 46 32 14
-25z m-548 -85 c-20 -27 -52 -81 -70 -120 -18 -40 -35 -73 -37 -73 -7 0 3 77
15 120 6 23 27 50 59 78 65 55 78 53 33 -5z m289 -18 c-38 -46 -43 -50 -43
-37 0 12 60 82 71 82 6 0 -7 -20 -28 -45z m422 -35 c6 -34 -10 -128 -21 -118
-2 3 -8 27 -14 54 -5 27 -12 60 -15 74 l-6 25 15 -25 c15 -24 16 -24 10 20 -5
41 -4 43 10 27 8 -11 17 -36 21 -57z m-347 -17 c-30 -36 -31 -44 -4 -37 29 7
33 -3 13 -30 -8 -11 -34 -22 -67 -27 -69 -11 -87 -28 -23 -22 26 3 59 1 72 -5
23 -8 22 -10 -31 -34 -31 -14 -90 -49 -131 -77 -42 -28 -79 -51 -82 -51 -3 0
-1 9 5 20 16 30 4 25 -56 -24 -30 -25 -79 -56 -109 -71 -30 -14 -55 -27 -55
-28 0 -1 48 -2 108 -2 117 0 152 -11 191 -61 31 -40 26 -44 -29 -23 -38 14
-74 19 -148 18 -64 -1 -88 -4 -72 -9 14 -4 40 -8 58 -9 21 -1 32 -6 32 -16 0
-10 11 -15 35 -15 19 0 35 -3 35 -7 0 -3 -24 -32 -54 -63 -29 -31 -68 -82 -87
-115 l-33 -58 -11 54 c-18 92 -90 182 -169 210 -20 7 -36 17 -36 21 0 4 33 24
73 44 167 85 264 162 344 275 30 43 59 81 64 85 20 12 19 -3 -2 -29 -15 -20
-17 -27 -7 -27 8 0 28 19 45 43 28 41 99 87 132 87 12 0 12 -3 -1 -17z m-301
-76 c-58 -52 -72 -74 -39 -63 9 3 -4 -13 -29 -36 -68 -63 -197 -165 -173 -137
11 13 51 60 88 104 57 67 189 185 206 185 3 0 -21 -24 -53 -53z m393 -113 c12
-12 12 -18 2 -32 -46 -66 -70 -120 -94 -216 -28 -109 -73 -224 -84 -213 -3 3
-1 14 5 25 7 13 10 81 8 179 -2 151 -1 160 23 208 14 28 36 56 50 63 28 14 68
8 90 -14z"/>
<path d="M3815 4205 c-142 -23 -258 -50 -285 -66 -8 -4 -10 -8 -5 -9 44 0 384
65 460 89 l30 9 -30 0 c-16 0 -93 -10 -170 -23z"/>
<path d="M3277 3969 c7 -7 41 -14 75 -16 52 -2 57 -1 28 6 -80 20 -116 23
-103 10z"/>
<path d="M3809 3530 c52 -28 100 -55 108 -61 9 -8 13 -8 13 -1 0 16 -57 57
-120 86 -97 46 -98 27 -1 -24z"/>
<path d="M2749 3530 c-15 -4 -56 -24 -93 -45 -37 -20 -97 -48 -134 -62 l-67
-24 58 5 c41 3 87 19 163 55 83 40 117 51 155 51 59 0 72 15 21 24 -46 7 -70
7 -103 -4z"/>
<path d="M2165 3391 c-13 -5 14 -10 75 -13 52 -3 103 -8 113 -13 10 -4 17 -3
17 3 0 26 -155 42 -205 23z"/>
<path d="M2575 3354 c-45 -17 -81 -23 -146 -23 -75 -1 -94 -5 -146 -31 -33
-17 -68 -39 -78 -50 -16 -18 -11 -17 46 7 46 18 93 28 165 34 105 9 189 33
234 69 23 18 23 19 5 19 -11 -1 -47 -12 -80 -25z"/>
<path d="M2832 3202 c28 -33 91 -52 176 -52 45 0 82 4 82 9 0 5 -44 14 -97 21
-54 6 -115 18 -136 25 -34 12 -36 11 -25 -3z"/>
<path d="M1882 3068 c5 -15 48 -18 48 -3 0 6 -11 11 -26 13 -18 3 -25 0 -22
-10z"/>
<path d="M1538 3011 c-50 -7 -76 -21 -40 -21 13 0 22 -6 22 -16 0 -13 4 -13
31 3 32 19 58 44 43 42 -5 -1 -30 -5 -56 -8z"/>
<path d="M1702 2788 c7 -20 58 -23 58 -4 0 11 -10 16 -31 16 -20 0 -29 -4 -27
-12z"/>
<path d="M2405 2773 c-11 -3 -57 -21 -102 -39 -45 -19 -91 -34 -102 -34 -12 0
-21 -5 -21 -11 0 -17 80 -3 181 32 48 16 108 29 135 29 37 1 45 3 32 10 -21
13 -96 21 -123 13z"/>
<path d="M1642 2718 c3 -7 17 -14 32 -16 20 -3 27 0 24 10 -3 7 -17 14 -32 16
-20 3 -27 0 -24 -10z"/>
<path d="M1570 2655 c0 -9 9 -15 25 -15 28 0 34 15 9 24 -25 10 -34 7 -34 -9z"/>
<path d="M1500 2590 c0 -5 11 -10 25 -10 14 0 25 5 25 10 0 6 -11 10 -25 10
-14 0 -25 -4 -25 -10z"/>
<path d="M1420 2550 c0 -5 14 -10 30 -10 17 0 30 5 30 10 0 6 -13 10 -30 10
-16 0 -30 -4 -30 -10z"/>
<path d="M1350 2495 c0 -9 9 -15 25 -15 16 0 25 6 25 15 0 9 -9 15 -25 15 -16
0 -25 -6 -25 -15z"/>
<path d="M1300 2450 c0 -5 12 -10 26 -10 14 0 23 4 19 10 -3 6 -15 10 -26 10
-10 0 -19 -4 -19 -10z"/>
<path d="M1792 3465 c-61 -35 -98 -65 -80 -65 15 0 138 75 138 85 0 10 -15 5
-58 -20z"/>
<path d="M1595 3397 c-72 -29 -161 -84 -152 -93 2 -2 62 25 133 61 139 70 148
84 19 32z"/>
</g>
</svg>
