<?xml version="1.0" standalone="no"?>
<!DOCTYPE svg PUBLIC "-//W3C//DTD SVG 20010904//EN"
 "http://www.w3.org/TR/2001/REC-SVG-20010904/DTD/svg10.dtd">
<svg version="1.0" xmlns="http://www.w3.org/2000/svg"
 width="744.000000pt" height="644.000000pt" viewBox="0 0 744.000000 644.000000"
 preserveAspectRatio="xMidYMid meet">

<g transform="translate(0.000000,644.000000) scale(0.100000,-0.100000)"
fill="#000000" stroke="none">
<path d="M3478 5473 c-32 -35 -56 -84 -98 -198 -57 -156 -119 -255 -159 -255
-10 0 -26 -9 -36 -21 -26 -28 -134 -99 -151 -99 -8 0 -14 10 -14 21 0 18 -2
19 -15 9 -24 -20 -115 -60 -135 -60 -9 0 -28 -8 -41 -18 -32 -25 -57 -33 -64
-22 -4 6 -1 10 5 10 6 0 9 4 6 9 -4 5 -39 15 -79 21 -39 7 -106 23 -147 36
-41 14 -80 22 -87 20 -7 -3 -13 1 -13 9 0 8 -22 26 -48 39 -27 14 -89 49 -138
79 -108 65 -127 73 -144 52 -17 -21 -7 -80 31 -174 20 -49 41 -137 60 -244 16
-93 36 -198 44 -233 20 -86 19 -91 -8 -67 -44 40 -47 38 -41 -25 4 -37 3 -62
-4 -66 -6 -3 -13 -2 -17 4 -3 5 -13 10 -21 10 -11 0 -14 -19 -14 -92 0 -104
-9 -130 -34 -108 -9 7 -18 11 -20 9 -6 -7 17 -159 24 -159 16 0 32 33 76 151
60 165 86 209 162 280 70 66 121 95 146 86 15 -6 15 -10 1 -44 -8 -20 -32 -56
-53 -80 -64 -76 -122 -163 -122 -185 0 -17 -2 -18 -15 -8 -24 20 -30 4 -29
-73 0 -40 -1 -64 -4 -54 -7 35 -27 10 -50 -64 -12 -41 -25 -80 -27 -88 -4 -9
-17 -4 -48 21 -38 32 -98 68 -112 68 -11 0 -4 -32 15 -70 26 -52 26 -64 -4
-56 -38 9 -37 -3 5 -63 43 -62 63 -131 36 -131 -11 0 -15 10 -14 34 1 33 -16
66 -34 66 -15 0 -10 -22 8 -42 14 -16 15 -21 4 -28 -12 -7 -12 -16 -1 -55 8
-30 10 -49 3 -53 -34 -24 -229 -184 -342 -281 -74 -64 -171 -147 -215 -184
-98 -83 -145 -135 -146 -162 0 -29 68 -112 253 -307 l161 -171 136 6 c163 8
228 18 385 60 105 27 137 31 252 32 72 0 135 -3 139 -8 21 -21 16 -130 -12
-237 -15 -60 -25 -112 -22 -115 3 -4 16 -1 28 5 35 19 33 7 -10 -50 -22 -30
-40 -55 -40 -57 0 -2 17 0 39 3 50 8 57 -6 21 -41 -39 -37 -29 -50 20 -25 75
38 58 -1 -52 -117 -68 -72 -74 -92 -20 -64 66 34 142 101 190 167 l47 65 2
-33 c9 -117 14 -138 33 -138 14 0 22 -11 30 -42 21 -83 20 -80 37 -66 14 12
16 6 11 -52 -7 -80 -44 -160 -102 -214 l-41 -39 40 8 c21 3 52 13 67 21 38 20
96 82 121 129 l21 40 8 -45 c5 -25 13 -68 19 -96 9 -48 66 -181 73 -173 2 2
-1 33 -6 69 -13 94 8 260 31 245 12 -7 20 -370 11 -487 -5 -65 -15 -119 -25
-139 -25 -47 -100 -124 -154 -156 -38 -23 -42 -28 -25 -31 58 -8 193 93 263
197 21 31 73 118 116 194 87 154 101 174 270 383 66 82 145 182 175 222 29 39
57 72 61 72 5 0 6 -24 3 -52 -22 -223 -109 -385 -259 -480 -50 -31 -56 -38
-35 -38 40 0 164 64 207 107 61 61 109 141 258 432 77 151 146 277 153 279 35
11 -17 -193 -92 -358 -31 -68 -54 -126 -51 -128 15 -16 211 188 286 300 37 54
56 74 64 66 6 -6 -90 -249 -130 -328 -86 -171 -203 -305 -330 -375 -36 -20
-109 -55 -162 -78 -67 -29 -91 -43 -76 -45 33 -5 137 24 227 63 44 19 81 33
83 31 2 -1 -9 -19 -25 -39 -36 -49 -138 -125 -300 -222 -72 -44 -125 -81 -117
-83 8 -2 52 12 99 31 404 165 789 678 966 1287 24 80 44 147 46 149 19 21 4
-123 -38 -374 -26 -154 -32 -218 -32 -340 0 -162 13 -236 59 -330 24 -47 25
-48 20 -15 -14 89 -17 326 -6 398 7 42 48 183 91 312 43 129 83 264 89 300 28
182 21 448 -14 564 -20 67 -18 89 4 46 34 -64 89 -236 112 -349 33 -166 48
-147 56 74 5 121 2 161 -21 297 -15 86 -37 191 -50 235 -13 43 -22 80 -20 82
3 3 27 -17 55 -45 50 -48 51 -48 45 -19 -14 64 -69 154 -147 244 l-82 93 41
-6 c23 -3 60 -9 82 -12 22 -3 40 -3 40 0 0 3 -19 15 -42 27 -90 46 -238 158
-238 180 0 5 20 9 44 9 78 0 69 24 -23 59 -89 34 -114 71 -48 71 30 1 28 3
-23 24 -67 28 -140 65 -140 71 0 2 20 16 45 31 25 14 44 28 43 30 -2 2 -37 8
-78 15 -41 6 -77 13 -78 14 -2 2 11 18 30 35 l33 31 -57 -7 c-39 -4 -58 -3
-58 4 0 15 22 26 123 63 47 17 92 38 99 46 12 15 3 16 -89 10 -57 -3 -103 -4
-103 -1 0 2 11 27 25 54 14 27 25 52 25 56 0 3 -29 3 -65 -1 -36 -3 -65 -4
-65 -2 0 3 27 38 60 79 54 66 68 88 56 88 -3 0 -43 -20 -90 -45 -48 -25 -100
-45 -116 -45 l-29 0 15 42 c19 55 13 71 -21 58 -52 -20 -55 -16 -55 68 0 79
-9 110 -29 98 -6 -4 -18 6 -29 23 -18 33 -27 37 -37 21 -16 -25 -37 -4 -72 73
-62 136 -102 207 -170 310 -157 237 -298 331 -375 250z m109 -133 c48 -29 75
-91 81 -181 4 -76 4 -76 -32 -116 -20 -22 -36 -45 -36 -50 0 -5 -13 -22 -29
-37 -16 -15 -28 -38 -28 -51 0 -13 -26 -71 -56 -129 -31 -58 -52 -106 -47
-106 18 0 10 -27 -20 -68 -36 -50 -37 -55 -9 -47 34 11 20 -25 -20 -52 -43
-29 -91 -31 -98 -3 -7 27 -12 25 -43 -12 -32 -39 -55 -33 -76 18 -14 33 -14
42 1 85 20 63 87 175 219 369 58 85 106 161 106 169 0 9 -24 -8 -56 -39 -31
-30 -53 -46 -49 -35 4 11 27 76 51 145 41 118 66 160 98 160 6 0 25 -9 43 -20z
m-1334 -388 c29 -27 99 -81 155 -121 119 -84 182 -141 182 -164 0 -23 -8 -21
-30 5 l-18 23 -7 -38 c-8 -44 -58 -91 -87 -83 -15 3 -22 -3 -30 -24 -11 -32
-37 -45 -68 -35 -15 5 -20 2 -20 -13 0 -11 -6 -25 -14 -31 -25 -21 -34 11 -38
139 -3 111 -6 130 -27 158 -18 26 -19 32 -7 32 21 0 21 1 -14 57 -27 43 -52
143 -36 143 3 0 30 -22 59 -48z m1640 -69 c21 -46 22 -60 22 -323 l0 -275 -37
-94 -36 -93 28 5 27 6 -14 -42 c-8 -23 -20 -48 -26 -56 -21 -26 -89 -71 -98
-65 -16 10 -9 24 16 30 13 3 29 12 35 19 14 17 -13 39 -41 32 -12 -3 -22 0
-26 9 -3 8 -12 14 -19 14 -32 0 -26 32 12 71 24 25 33 39 23 39 -9 0 -26 -11
-39 -25 -30 -32 -50 -32 -50 0 0 23 -2 24 -50 18 -60 -7 -61 -4 -19 79 47 92
61 138 45 138 -8 0 -19 -7 -26 -15 -22 -26 -39 -17 -43 23 l-3 37 -8 -32 c-5
-18 -12 -33 -16 -33 -37 0 -50 351 -16 447 20 61 30 70 52 49 9 -9 20 -14 25
-11 11 8 12 11 -6 -55 -19 -71 -19 -81 2 -73 14 6 16 -2 10 -75 -7 -103 -2
-120 29 -118 19 1 25 8 30 34 4 19 10 30 14 25 14 -15 39 -137 46 -226 4 -48
10 -90 15 -92 10 -7 77 179 103 288 9 38 -9 34 -25 -5 l-13 -33 -3 32 c-3 17
7 88 21 156 14 68 26 150 26 181 0 31 2 56 5 56 3 0 16 -21 28 -47z m-753 -66
c0 -40 -56 -117 -90 -123 -16 -4 -50 -24 -74 -45 -45 -40 -73 -50 -62 -24 9
24 -14 17 -50 -15 -19 -16 -52 -34 -74 -40 -36 -10 -56 -30 -29 -30 5 0 7 -4
4 -10 -3 -5 -19 -7 -35 -3 -24 4 -36 -1 -64 -29 -19 -19 -39 -52 -45 -75 -13
-49 -120 -169 -168 -190 -18 -7 -45 -31 -59 -53 -43 -65 -49 -46 -9 28 50 91
99 152 103 129 2 -9 7 -17 11 -17 14 0 50 45 66 82 20 50 19 61 -5 53 -17 -5
-20 -2 -20 22 0 38 5 43 80 93 36 24 114 81 174 127 120 92 155 106 125 51
-19 -35 -2 -31 73 15 81 50 129 76 141 77 4 0 7 -10 7 -23z m-114 -317 c7 -7
16 -4 29 10 28 31 42 24 71 -31 33 -66 75 -104 139 -126 l50 -17 -75 -8 c-111
-11 -112 -13 -25 -32 44 -9 86 -19 93 -21 22 -7 13 -23 -20 -34 -36 -13 -31
-22 20 -37 28 -8 36 -15 34 -30 -4 -28 -7 -38 -16 -52 -13 -21 -3 -24 88 -32
46 -5 95 -11 107 -15 22 -7 22 -8 3 -22 -18 -14 -18 -15 10 -37 15 -13 82 -54
147 -91 66 -37 119 -72 119 -77 0 -5 -15 -9 -32 -8 -18 1 -37 2 -42 1 -20 -2
22 -35 88 -68 47 -24 65 -37 56 -43 -9 -6 -4 -13 19 -25 20 -10 31 -22 27 -30
-3 -8 25 -47 66 -92 130 -143 176 -233 185 -363 l6 -75 -34 30 c-107 94 -169
160 -164 176 4 13 -6 21 -42 34 -26 10 -87 33 -134 51 -48 19 -89 34 -92 34
-4 0 3 -15 14 -34 66 -112 -135 18 -216 140 -20 30 -35 57 -33 60 3 2 25 -4
49 -15 24 -10 59 -22 77 -26 57 -12 35 13 -45 51 -43 20 -72 38 -65 41 11 4
141 -20 182 -35 10 -3 12 -2 5 6 -5 6 -55 28 -111 50 -56 22 -110 44 -120 50
-20 11 -19 12 26 25 21 6 -57 27 -100 27 -19 0 -48 7 -65 16 -16 9 -52 19 -80
23 l-50 7 43 14 c23 7 42 17 42 22 0 4 -51 8 -114 8 -63 0 -117 4 -120 9 -3 4
-19 11 -36 15 -28 5 -31 9 -28 38 l3 33 -67 9 c-38 4 -68 12 -68 16 0 5 17 14
38 21 l37 14 -40 5 -40 6 65 33 c36 19 83 40 105 47 34 10 37 13 20 20 -13 5
-49 -3 -110 -24 -49 -18 -96 -32 -103 -32 -31 0 53 63 106 80 l57 18 -74 1
-74 1 5 48 5 47 -56 1 c-58 1 -121 13 -121 22 0 2 29 38 65 78 36 40 71 84 78
97 13 25 14 25 45 10 30 -14 34 -14 51 1 9 9 22 16 27 16 5 0 27 16 49 34 l40
34 5 -44 c3 -24 11 -49 16 -54z m389 -40 c7 -11 -52 -40 -81 -40 -26 0 2 28
40 39 17 5 32 10 33 10 1 1 5 -4 8 -9z m853 -399 c69 -13 72 -26 13 -58 -28
-15 -51 -30 -51 -33 0 -3 20 -4 45 -2 37 3 54 -1 85 -22 22 -15 40 -30 40 -35
0 -7 -97 8 -155 25 -36 11 -4 -13 130 -97 126 -79 129 -81 85 -75 l-45 5 40
-19 c35 -17 37 -20 15 -20 -14 0 -66 11 -115 25 -50 14 -94 25 -98 25 -19 0
11 -24 131 -106 139 -95 212 -152 212 -165 0 -11 -85 22 -153 61 -29 16 -57
30 -60 30 -4 0 43 -59 104 -130 61 -72 109 -133 106 -137 -4 -3 -48 30 -99 74
-138 117 -188 156 -188 147 0 -5 27 -45 60 -88 33 -44 60 -82 60 -85 0 -3 -39
33 -86 79 l-86 85 4 -53 c2 -28 0 -52 -3 -52 -3 0 -32 39 -65 87 -32 48 -82
111 -111 139 -29 29 -53 55 -53 59 0 4 16 4 35 1 19 -4 35 -3 35 2 0 5 -30 29
-67 55 -38 25 -93 68 -123 95 l-54 49 24 15 c196 124 220 134 220 88 0 -11 5
-20 10 -20 6 0 10 11 10 24 0 13 6 27 13 29 19 8 88 7 135 -2z m-1824 -97
c-20 -43 -27 -75 -27 -119 0 -33 -4 -63 -9 -66 -5 -3 -12 -25 -15 -48 -8 -59
-68 -121 -205 -214 -62 -41 -135 -96 -163 -121 l-50 -46 125 59 c202 95 261
108 231 53 -18 -34 -13 -35 34 -1 25 18 48 30 51 27 11 -12 -40 -47 -156 -109
-66 -35 -117 -65 -115 -67 2 -2 39 8 82 23 63 22 106 29 225 36 81 4 166 13
190 19 70 20 153 66 230 131 85 72 125 91 167 83 50 -10 37 13 -18 33 -27 9
-47 21 -45 25 11 17 91 7 143 -17 70 -33 178 -142 221 -223 18 -35 64 -98 102
-140 74 -82 138 -179 138 -207 0 -14 -6 -16 -37 -11 -59 11 -133 36 -197 68
-63 32 -75 31 -55 -1 7 -11 10 -23 6 -27 -7 -7 -154 42 -174 58 -25 21 -12 -9
15 -34 40 -37 89 -63 162 -87 95 -31 128 -55 151 -107 24 -54 36 -114 22 -114
-10 0 -64 44 -167 138 -32 29 -61 51 -63 48 -3 -3 32 -64 77 -136 45 -72 80
-133 77 -136 -3 -3 -37 25 -77 62 l-72 68 7 -47 c4 -26 4 -47 0 -47 -4 0 -28
19 -53 42 -26 24 -47 37 -50 30 -4 -12 32 -86 95 -200 19 -35 33 -65 31 -68
-3 -2 -24 25 -47 60 -49 77 -114 136 -187 172 -71 34 -90 26 -31 -14 65 -45
67 -56 6 -31 -105 41 -182 43 -270 6 -32 -13 -29 -14 61 -13 87 1 101 -2 163
-31 76 -36 184 -132 223 -199 33 -56 48 -148 39 -239 -4 -41 -10 -75 -14 -75
-5 0 -11 43 -15 96 -10 143 -30 167 -61 75 -19 -58 -53 -96 -41 -46 4 17 10
60 13 96 4 58 2 75 -22 127 -51 113 -119 155 -250 155 -93 -1 -190 -22 -416
-93 -180 -56 -235 -62 -88 -10 130 47 208 83 188 87 -9 2 -74 -17 -145 -43
-177 -64 -210 -72 -354 -84 -171 -14 -211 -20 -205 -31 11 -17 -30 -9 -55 11
-34 27 -19 35 89 50 211 28 293 41 347 55 70 18 223 91 353 169 100 59 131 72
251 107 l75 21 -40 21 c-31 16 -36 22 -22 25 11 2 42 -8 69 -22 28 -15 52 -25
54 -23 2 2 -9 16 -24 30 -76 73 -332 42 -420 -51 -15 -15 -41 -38 -59 -50 -17
-12 -33 -32 -35 -45 -4 -31 -76 -68 -228 -118 -150 -49 -211 -53 -320 -20
-127 39 -180 62 -180 77 0 18 14 18 51 -2 40 -20 61 -12 26 10 -36 24 -37 49
-1 36 36 -14 37 -13 13 19 -20 27 -20 30 -5 81 36 121 27 132 -153 196 -31 11
200 211 446 385 182 129 204 153 273 294 60 123 129 240 137 232 2 -3 -8 -31
-23 -63z m358 -11 c10 -9 18 -24 18 -35 0 -10 6 -27 13 -39 21 -35 -12 -49
-119 -49 -104 0 -130 -7 -186 -52 -21 -17 -42 -28 -45 -24 -11 10 26 78 45 83
10 2 22 19 28 36 9 33 61 74 119 95 38 14 104 6 127 -15z m72 -256 c-137 -129
-193 -177 -221 -188 -32 -12 -90 -11 -114 1 -16 9 -17 14 -7 29 13 22 -3 51
-29 51 -30 0 -5 26 43 44 27 10 103 45 170 77 102 51 239 95 253 83 2 -2 -40
-46 -95 -97z m-201 87 c11 -12 -17 -56 -46 -70 -22 -12 -32 -13 -43 -3 -20 16
-18 26 11 54 22 23 64 33 78 19z m1504 -272 c66 -89 110 -235 98 -327 -7 -50
-52 -165 -65 -165 -4 0 -10 57 -14 128 -3 70 -9 138 -12 152 -5 23 -4 24 7 5
7 -10 20 -44 30 -75 l17 -55 1 50 c1 64 -19 141 -60 230 -17 39 -33 73 -36 78
-12 20 16 3 34 -21z m-761 -84 c27 -21 79 -54 116 -73 37 -20 70 -40 73 -45
21 -34 -140 23 -196 69 -19 16 -45 48 -59 72 -27 49 -31 51 66 -23z m169 -188
c66 -39 90 -58 82 -67 -9 -9 -71 25 -115 64 -46 40 -32 42 33 3z m431 -80 c22
-25 50 -59 63 -77 25 -37 44 -133 32 -166 -8 -19 -10 -17 -20 23 -27 102 -45
142 -93 210 -54 78 -46 82 18 10z m-6 -142 c24 -53 25 -117 4 -189 -28 -92
-103 -223 -120 -207 -3 4 8 25 25 46 57 73 75 127 75 232 1 52 -3 110 -7 128
-12 45 0 40 23 -10z m-2490 -118 c8 -16 8 -20 -4 -20 -14 0 -46 36 -46 53 0
13 39 -12 50 -33z m1901 -449 c-31 -92 -89 -217 -97 -209 -5 6 25 270 32 277
2 2 4 -25 4 -62 0 -36 4 -68 9 -72 10 -5 38 62 62 145 7 25 14 38 16 28 2 -9
-9 -57 -26 -107z m75 -155 c-46 -148 -82 -303 -73 -312 3 -3 20 22 37 55 33
60 58 84 40 36 -13 -34 -47 -96 -64 -119 -55 -69 -45 155 15 316 33 90 78 182
85 175 3 -3 -15 -71 -40 -151z"/>
<path d="M3068 4058 c-61 -22 -21 -38 92 -38 l75 1 -28 24 c-31 27 -87 32
-139 13z"/>
<path d="M3206 3478 c15 -29 32 -64 38 -78 11 -23 101 -88 111 -79 6 7 -62
161 -80 178 -13 14 -15 13 -15 -2 0 -21 -13 -22 -30 -1 -8 8 -22 20 -32 25
-16 9 -15 2 8 -43z"/>
<path d="M2125 2941 c-33 -8 -75 -29 -75 -37 0 -3 14 -3 31 1 42 9 30 -9 -23
-36 -22 -11 -38 -23 -35 -25 7 -7 133 24 166 40 15 8 33 21 40 30 24 29 -34
44 -104 27z"/>
</g>
</svg>
